<?xml version="1.0" encoding="UTF-8" standalone="no"?>
<svg
   width="456"
   height="456"
   viewBox="0 0 456 456"
   version="1.1"
   xml:space="preserve"
   style="fill-rule:evenodd;clip-rule:evenodd;stroke-linejoin:round;stroke-miterlimit:2;"
   id="svg10"
   sodipodi:docname="appiconfg_mauiinteligente.svg"
   inkscape:version="1.1.2 (b8e25be833, 2022-02-05)"
   xmlns:inkscape="http://www.inkscape.org/namespaces/inkscape"
   xmlns:sodipodi="http://sodipodi.sourceforge.net/DTD/sodipodi-0.dtd"
   xmlns="http://www.w3.org/2000/svg"
   xmlns:svg="http://www.w3.org/2000/svg"><defs
   id="defs14" /><sodipodi:namedview
   id="namedview12"
   pagecolor="#ffffff"
   bordercolor="#111111"
   borderopacity="1"
   inkscape:pageshadow="0"
   inkscape:pageopacity="0"
   inkscape:pagecheckerboard="1"
   showgrid="false"
   inkscape:zoom="1.4122807"
   inkscape:cx="154.36025"
   inkscape:cy="228"
   inkscape:window-width="1920"
   inkscape:window-height="1027"
   inkscape:window-x="-8"
   inkscape:window-y="-8"
   inkscape:window-maximized="1"
   inkscape:current-layer="layer2" />
    
    
    
    
<g
   inkscape:groupmode="layer"
   id="layer2"
   inkscape:label="Layer 2"
   style="display:inline"><rect
     style="fill:none;stroke:#ffffff;stroke-width:6;stroke-linecap:square;stroke-miterlimit:2;stroke-dasharray:none;stroke-dashoffset:18;stroke-opacity:1"
     id="rect35"
     width="261.5304"
     height="77.888199"
     x="99.130432"
     y="183.3913"
     rx="13.345217"
     ry="11.937733" /></g><g
   inkscape:groupmode="layer"
   id="layer1"
   inkscape:label="Layer 1"
   style="display:inline"><g
     aria-label="M.INT"
     id="text9619"
     style="font-weight:bold;font-size:108.969px;line-height:1.25;font-family:Century;-inkscape-font-specification:'Century Bold';letter-spacing:3.83094px;stroke-width:1.45195"
     transform="matrix(0.69427509,0,0,0.68322981,67.66813,74.541333)"><path
       d="m 54.793908,176.54292 h 26.231307 l 23.464515,62.14639 21.65546,-62.14639 h 26.81659 v 3.99057 h -6.54452 q -3.45849,0 -4.68226,1.01094 -1.17057,1.01094 -1.17057,3.5117 v 62.306 q 0,1.86227 1.4366,2.87321 1.43661,1.01094 4.9483,1.01094 h 6.01245 v 3.99057 H 116.9935 v -3.99057 h 6.70415 q 2.8732,0 4.2566,-1.06415 1.38339,-1.11736 1.38339,-2.82 v -66.82864 l -26.01847,74.70336 H 99.701055 L 71.713899,180.85273 v 57.19809 q 0,5.10792 1.276981,7.66188 1.27698,2.50075 3.618111,3.88415 2.394338,1.33019 7.874713,1.64943 v 3.99057 H 54.793908 v -3.99057 q 7.28943,-0.47886 9.896598,-3.13924 2.607169,-2.66038 2.607169,-9.41773 v -54.27167 q 0,-2.02189 -1.223773,-2.92642 -1.223773,-0.95773 -4.575847,-0.95773 h -6.704147 z"
       style="fill:#ffffff;stroke-width:1.45195"
       id="path8" /><path
       d="m 174.83007,243.63761 q 2.66038,0 4.52264,1.91547 1.86226,1.91547 1.86226,4.57584 0,2.7668 -1.86226,4.68227 -1.86226,1.91547 -4.57585,1.91547 -2.66037,0 -4.57584,-1.91547 -1.86227,-1.91547 -1.86227,-4.62906 0,-2.71358 1.86227,-4.62905 1.91547,-1.91547 4.62905,-1.91547 z"
       style="fill:#ffffff;stroke-width:1.45195"
       id="path10" /><path
       d="m 197.81572,176.54292 h 36.28753 v 3.99057 h -6.22528 q -4.15019,0 -5.26755,1.06415 -1.06415,1.01094 -1.06415,4.36302 v 59.59242 q 0,3.5649 0.95774,4.46943 1.27698,1.22377 4.62905,1.22377 h 6.97019 v 3.99057 h -36.28753 v -3.99057 h 6.86377 q 3.61811,0 4.68226,-1.06415 1.06415,-1.06415 1.06415,-4.62905 v -59.59242 q 0,-3.40529 -0.95774,-4.2034 -1.48981,-1.22377 -5.48037,-1.22377 h -6.17207 z"
       style="fill:#ffffff;stroke-width:1.45195"
       id="path12" /><path
       d="m 246.44739,176.54292 h 18.78225 l 47.46111,61.82714 v -44.74752 q 0,-6.75736 -3.08604,-10.00302 -2.82,-2.97962 -8.40678,-3.08603 v -3.99057 h 27.50828 v 3.99057 q -4.20339,0 -6.27848,1.17056 -2.0751,1.17057 -3.61812,4.25661 -1.54301,3.08603 -1.54301,6.75735 v 62.51884 h -5.00151 l -49.11054,-64.3279 v 47.46111 q 0,6.43811 3.24566,9.63056 3.24566,3.13925 10.05622,3.24566 v 3.99057 h -30.00904 v -3.99057 q 5.63999,-0.21283 8.93886,-3.67132 3.29887,-3.51169 3.29887,-8.56641 v -53.36714 l -0.90453,-0.95774 q -2.66038,-2.8732 -3.77774,-3.40528 -1.54301,-0.7449 -3.99056,-0.7449 h -3.5649 z"
       style="fill:#ffffff;stroke-width:1.45195"
       id="path14" /><path
       d="m 339.40094,176.54292 h 63.84902 l 1.54302,29.74301 h -3.67132 q -3.61811,-26.23131 -18.94187,-26.23131 -3.08604,0 -4.25661,1.06415 -1.11735,1.06415 -1.11735,3.5117 v 62.89129 q 0,1.91547 1.11735,2.82 1.11736,0.90452 3.67132,0.90452 h 7.92792 v 3.99057 h -36.55356 v -3.99057 h 9.04528 q 1.80905,0 2.76679,-0.90452 0.95773,-0.90453 0.95773,-2.39434 V 184.1516 q 0,-2.02189 -1.22377,-3.03283 -1.22377,-1.06415 -3.93736,-1.06415 -7.71509,0 -12.87622,7.28943 -4.2566,6.01245 -6.11886,18.94188 h -3.88415 z"
       style="fill:#ffffff;stroke-width:1.45195"
       id="path16" /></g></g></svg>
