<svg xmlns="http://www.w3.org/2000/svg" xmlns:xlink="http://www.w3.org/1999/xlink" width="300" zoomAndPan="magnify" viewBox="0 0 224.87999 225" height="300" preserveAspectRatio="xMidYMid meet" version="1.0"><defs><clipPath id="0876b38afb"><path d="M 0 0.0585938 L 224.761719 0.0585938 L 224.761719 224.9375 L 0 224.9375 Z M 0 0.0585938 " clip-rule="nonzero"/></clipPath></defs><g clip-path="url(#0876b38afb)"><path fill="#9c0d38" d="M 112.441406 0.0585938 C 110.601562 0.0585938 108.761719 0.105469 106.921875 0.195312 C 105.085938 0.285156 103.25 0.421875 101.417969 0.601562 C 99.585938 0.78125 97.761719 1.007812 95.941406 1.277344 C 94.121094 1.546875 92.308594 1.863281 90.503906 2.21875 C 88.699219 2.578125 86.90625 2.984375 85.121094 3.429688 C 83.335938 3.875 81.5625 4.367188 79.800781 4.902344 C 78.039062 5.4375 76.292969 6.011719 74.558594 6.632812 C 72.828125 7.253906 71.109375 7.914062 69.410156 8.617188 C 67.710938 9.324219 66.027344 10.070312 64.367188 10.855469 C 62.703125 11.640625 61.058594 12.46875 59.4375 13.335938 C 57.8125 14.203125 56.210938 15.109375 54.632812 16.058594 C 53.054688 17.003906 51.5 17.988281 49.972656 19.007812 C 48.441406 20.03125 46.9375 21.089844 45.460938 22.1875 C 43.980469 23.285156 42.53125 24.414062 41.109375 25.582031 C 39.6875 26.75 38.292969 27.953125 36.929688 29.1875 C 35.566406 30.421875 34.234375 31.691406 32.933594 32.992188 C 31.632812 34.292969 30.363281 35.625 29.128906 36.988281 C 27.890625 38.351562 26.691406 39.746094 25.523438 41.167969 C 24.355469 42.589844 23.222656 44.042969 22.128906 45.519531 C 21.03125 46.996094 19.972656 48.5 18.949219 50.03125 C 17.925781 51.5625 16.941406 53.117188 15.996094 54.695312 C 15.050781 56.273438 14.144531 57.875 13.277344 59.496094 C 12.410156 61.117188 11.582031 62.761719 10.796875 64.425781 C 10.007812 66.089844 9.261719 67.769531 8.558594 69.472656 C 7.855469 71.171875 7.191406 72.886719 6.574219 74.621094 C 5.953125 76.351562 5.375 78.097656 4.839844 79.859375 C 4.308594 81.621094 3.816406 83.394531 3.371094 85.179688 C 2.921875 86.964844 2.519531 88.757812 2.160156 90.5625 C 1.800781 92.367188 1.488281 94.179688 1.21875 96 C 0.945312 97.820312 0.722656 99.648438 0.542969 101.480469 C 0.359375 103.308594 0.226562 105.144531 0.136719 106.984375 C 0.046875 108.820312 0 110.660156 0 112.5 C 0 114.339844 0.046875 116.179688 0.136719 118.015625 C 0.226562 119.855469 0.359375 121.691406 0.542969 123.519531 C 0.722656 125.351562 0.945312 127.179688 1.21875 129 C 1.488281 130.820312 1.800781 132.632812 2.160156 134.4375 C 2.519531 136.242188 2.921875 138.035156 3.371094 139.820312 C 3.816406 141.605469 4.308594 143.378906 4.839844 145.140625 C 5.375 146.902344 5.953125 148.648438 6.574219 150.378906 C 7.191406 152.113281 7.855469 153.828125 8.558594 155.527344 C 9.261719 157.230469 10.007812 158.910156 10.796875 160.574219 C 11.582031 162.238281 12.410156 163.882812 13.277344 165.503906 C 14.144531 167.125 15.050781 168.726562 15.996094 170.304688 C 16.941406 171.882812 17.925781 173.4375 18.949219 174.96875 C 19.972656 176.5 21.03125 178.003906 22.128906 179.480469 C 23.222656 180.957031 24.355469 182.410156 25.523438 183.832031 C 26.691406 185.253906 27.890625 186.648438 29.128906 188.011719 C 30.363281 189.375 31.632812 190.707031 32.933594 192.007812 C 34.234375 193.308594 35.566406 194.578125 36.929688 195.8125 C 38.292969 197.046875 39.6875 198.25 41.109375 199.417969 C 42.53125 200.585938 43.980469 201.714844 45.460938 202.8125 C 46.9375 203.910156 48.441406 204.96875 49.972656 205.992188 C 51.5 207.011719 53.054688 207.996094 54.632812 208.941406 C 56.210938 209.890625 57.8125 210.796875 59.4375 211.664062 C 61.058594 212.53125 62.703125 213.359375 64.367188 214.144531 C 66.027344 214.929688 67.710938 215.675781 69.410156 216.382812 C 71.109375 217.085938 72.828125 217.746094 74.558594 218.367188 C 76.292969 218.988281 78.039062 219.5625 79.800781 220.097656 C 81.5625 220.632812 83.335938 221.125 85.121094 221.570312 C 86.90625 222.015625 88.699219 222.421875 90.503906 222.78125 C 92.308594 223.136719 94.121094 223.453125 95.941406 223.722656 C 97.761719 223.992188 99.585938 224.21875 101.417969 224.398438 C 103.25 224.578125 105.085938 224.714844 106.921875 224.804688 C 108.761719 224.894531 110.601562 224.941406 112.441406 224.941406 C 114.28125 224.941406 116.121094 224.894531 117.957031 224.804688 C 119.796875 224.714844 121.628906 224.578125 123.460938 224.398438 C 125.292969 224.21875 127.117188 223.992188 128.9375 223.722656 C 130.757812 223.453125 132.570312 223.136719 134.375 222.78125 C 136.179688 222.421875 137.976562 222.015625 139.761719 221.570312 C 141.546875 221.125 143.320312 220.632812 145.078125 220.097656 C 146.839844 219.5625 148.585938 218.988281 150.320312 218.367188 C 152.050781 217.746094 153.769531 217.085938 155.46875 216.382812 C 157.167969 215.675781 158.851562 214.929688 160.515625 214.144531 C 162.179688 213.359375 163.820312 212.53125 165.445312 211.664062 C 167.066406 210.796875 168.667969 209.890625 170.246094 208.941406 C 171.824219 207.996094 173.378906 207.011719 174.910156 205.992188 C 176.4375 204.96875 177.941406 203.910156 179.421875 202.8125 C 180.898438 201.714844 182.347656 200.585938 183.769531 199.417969 C 185.195312 198.25 186.585938 197.046875 187.949219 195.8125 C 189.3125 194.578125 190.644531 193.308594 191.945312 192.007812 C 193.25 190.707031 194.515625 189.375 195.753906 188.011719 C 196.988281 186.648438 198.191406 185.253906 199.355469 183.832031 C 200.523438 182.410156 201.65625 180.957031 202.753906 179.480469 C 203.847656 178.003906 204.90625 176.5 205.929688 174.96875 C 206.953125 173.4375 207.9375 171.882812 208.882812 170.304688 C 209.828125 168.726562 210.734375 167.125 211.601562 165.503906 C 212.46875 163.882812 213.296875 162.238281 214.085938 160.574219 C 214.871094 158.910156 215.617188 157.230469 216.320312 155.527344 C 217.023438 153.828125 217.6875 152.113281 218.308594 150.378906 C 218.925781 148.648438 219.503906 146.902344 220.039062 145.140625 C 220.574219 143.378906 221.0625 141.605469 221.511719 139.820312 C 221.957031 138.035156 222.359375 136.242188 222.71875 134.4375 C 223.078125 132.632812 223.394531 130.820312 223.664062 129 C 223.933594 127.179688 224.15625 125.351562 224.339844 123.519531 C 224.519531 121.691406 224.652344 119.855469 224.746094 118.015625 C 224.835938 116.179688 224.878906 114.339844 224.878906 112.5 C 224.878906 110.660156 224.835938 108.820312 224.746094 106.984375 C 224.652344 105.144531 224.519531 103.308594 224.339844 101.480469 C 224.15625 99.648438 223.933594 97.820312 223.664062 96 C 223.394531 94.179688 223.078125 92.367188 222.71875 90.5625 C 222.359375 88.757812 221.957031 86.964844 221.511719 85.179688 C 221.0625 83.394531 220.574219 81.621094 220.039062 79.859375 C 219.503906 78.097656 218.925781 76.351562 218.308594 74.621094 C 217.6875 72.886719 217.023438 71.171875 216.320312 69.472656 C 215.617188 67.769531 214.871094 66.089844 214.085938 64.425781 C 213.296875 62.761719 212.46875 61.117188 211.601562 59.496094 C 210.734375 57.875 209.828125 56.273438 208.882812 54.695312 C 207.9375 53.117188 206.953125 51.5625 205.929688 50.03125 C 204.90625 48.5 203.847656 46.996094 202.753906 45.519531 C 201.65625 44.042969 200.523438 42.589844 199.355469 41.167969 C 198.191406 39.746094 196.988281 38.351562 195.753906 36.988281 C 194.515625 35.625 193.25 34.292969 191.945312 32.992188 C 190.644531 31.691406 189.3125 30.421875 187.949219 29.1875 C 186.585938 27.953125 185.195312 26.75 183.769531 25.582031 C 182.347656 24.414062 180.898438 23.285156 179.421875 22.1875 C 177.941406 21.089844 176.4375 20.03125 174.910156 19.007812 C 173.378906 17.988281 171.824219 17.003906 170.246094 16.058594 C 168.667969 15.109375 167.066406 14.203125 165.445312 13.335938 C 163.820312 12.46875 162.179688 11.640625 160.515625 10.855469 C 158.851562 10.070312 157.167969 9.324219 155.46875 8.617188 C 153.769531 7.914062 152.050781 7.253906 150.320312 6.632812 C 148.585938 6.011719 146.839844 5.4375 145.078125 4.902344 C 143.320312 4.367188 141.546875 3.875 139.761719 3.429688 C 137.976562 2.984375 136.179688 2.578125 134.375 2.21875 C 132.570312 1.863281 130.757812 1.546875 128.9375 1.277344 C 127.117188 1.007812 125.292969 0.78125 123.460938 0.601562 C 121.628906 0.421875 119.796875 0.285156 117.957031 0.195312 C 116.121094 0.105469 114.28125 0.0585938 112.441406 0.0585938 Z M 96.378906 48.25 C 96.378906 47.722656 96.402344 47.199219 96.453125 46.675781 C 96.507812 46.152344 96.582031 45.632812 96.6875 45.113281 C 96.789062 44.597656 96.917969 44.089844 97.070312 43.585938 C 97.222656 43.082031 97.398438 42.585938 97.601562 42.101562 C 97.800781 41.617188 98.027344 41.140625 98.273438 40.675781 C 98.523438 40.210938 98.792969 39.761719 99.085938 39.324219 C 99.375 38.886719 99.691406 38.464844 100.023438 38.058594 C 100.355469 37.652344 100.710938 37.261719 101.082031 36.890625 C 101.453125 36.519531 101.84375 36.164062 102.25 35.832031 C 102.65625 35.5 103.078125 35.183594 103.515625 34.894531 C 103.953125 34.601562 104.402344 34.332031 104.867188 34.082031 C 105.332031 33.835938 105.808594 33.609375 106.292969 33.410156 C 106.777344 33.207031 107.273438 33.03125 107.777344 32.878906 C 108.28125 32.726562 108.789062 32.597656 109.304688 32.496094 C 109.820312 32.390625 110.34375 32.316406 110.867188 32.261719 C 111.390625 32.210938 111.914062 32.1875 112.441406 32.1875 C 112.964844 32.1875 113.492188 32.210938 114.015625 32.261719 C 114.539062 32.316406 115.058594 32.390625 115.574219 32.496094 C 116.089844 32.597656 116.597656 32.726562 117.101562 32.878906 C 117.605469 33.03125 118.101562 33.207031 118.585938 33.410156 C 119.074219 33.609375 119.546875 33.835938 120.011719 34.082031 C 120.476562 34.332031 120.925781 34.601562 121.363281 34.894531 C 121.800781 35.183594 122.222656 35.5 122.628906 35.832031 C 123.035156 36.164062 123.425781 36.519531 123.796875 36.890625 C 124.171875 37.261719 124.523438 37.652344 124.855469 38.058594 C 125.191406 38.464844 125.503906 38.886719 125.796875 39.324219 C 126.089844 39.761719 126.359375 40.210938 126.605469 40.675781 C 126.855469 41.140625 127.078125 41.617188 127.28125 42.101562 C 127.480469 42.585938 127.660156 43.082031 127.8125 43.585938 C 127.964844 44.089844 128.089844 44.597656 128.195312 45.113281 C 128.296875 45.632812 128.375 46.152344 128.425781 46.675781 C 128.476562 47.199219 128.503906 47.722656 128.503906 48.25 C 128.503906 48.773438 128.476562 49.300781 128.425781 49.824219 C 128.375 50.347656 128.296875 50.867188 128.195312 51.382812 C 128.089844 51.898438 127.964844 52.40625 127.8125 52.910156 C 127.660156 53.414062 127.480469 53.910156 127.28125 54.394531 C 127.078125 54.882812 126.855469 55.355469 126.605469 55.820312 C 126.359375 56.285156 126.089844 56.734375 125.796875 57.171875 C 125.503906 57.609375 125.191406 58.03125 124.855469 58.4375 C 124.523438 58.84375 124.171875 59.234375 123.796875 59.605469 C 123.425781 59.980469 123.035156 60.332031 122.628906 60.664062 C 122.222656 61 121.800781 61.3125 121.363281 61.605469 C 120.925781 61.898438 120.476562 62.167969 120.011719 62.414062 C 119.546875 62.664062 119.074219 62.886719 118.585938 63.089844 C 118.101562 63.289062 117.605469 63.46875 117.101562 63.621094 C 116.597656 63.773438 116.089844 63.898438 115.574219 64.003906 C 115.058594 64.105469 114.539062 64.183594 114.015625 64.234375 C 113.492188 64.285156 112.964844 64.3125 112.441406 64.3125 C 111.914062 64.3125 111.390625 64.285156 110.867188 64.234375 C 110.34375 64.183594 109.820312 64.105469 109.304688 64.003906 C 108.789062 63.898438 108.28125 63.773438 107.777344 63.621094 C 107.273438 63.46875 106.777344 63.289062 106.292969 63.089844 C 105.808594 62.886719 105.332031 62.664062 104.867188 62.414062 C 104.402344 62.167969 103.953125 61.898438 103.515625 61.605469 C 103.078125 61.3125 102.65625 61 102.25 60.664062 C 101.84375 60.332031 101.453125 59.980469 101.082031 59.605469 C 100.710938 59.234375 100.355469 58.84375 100.023438 58.4375 C 99.691406 58.03125 99.375 57.609375 99.085938 57.171875 C 98.792969 56.734375 98.523438 56.285156 98.273438 55.820312 C 98.027344 55.355469 97.800781 54.882812 97.601562 54.394531 C 97.398438 53.910156 97.222656 53.414062 97.070312 52.910156 C 96.917969 52.40625 96.789062 51.898438 96.6875 51.382812 C 96.582031 50.867188 96.507812 50.347656 96.453125 49.824219 C 96.402344 49.300781 96.378906 48.773438 96.378906 48.25 Z M 144.566406 184.78125 C 144.566406 185.308594 144.515625 185.832031 144.410156 186.351562 C 144.308594 186.867188 144.15625 187.371094 143.953125 187.855469 C 143.753906 188.34375 143.503906 188.804688 143.210938 189.246094 C 142.917969 189.683594 142.585938 190.089844 142.214844 190.460938 C 141.839844 190.835938 141.433594 191.167969 140.996094 191.460938 C 140.558594 191.753906 140.09375 192 139.609375 192.203125 C 139.121094 192.40625 138.617188 192.558594 138.101562 192.660156 C 137.582031 192.761719 137.0625 192.8125 136.535156 192.8125 L 88.347656 192.8125 C 87.816406 192.8125 87.296875 192.761719 86.777344 192.660156 C 86.261719 192.558594 85.757812 192.40625 85.273438 192.203125 C 84.785156 192 84.320312 191.753906 83.882812 191.460938 C 83.445312 191.167969 83.039062 190.835938 82.667969 190.460938 C 82.292969 190.089844 81.960938 189.683594 81.667969 189.246094 C 81.375 188.804688 81.128906 188.34375 80.925781 187.855469 C 80.722656 187.371094 80.570312 186.867188 80.46875 186.351562 C 80.367188 185.832031 80.3125 185.308594 80.3125 184.78125 C 80.3125 184.253906 80.367188 183.734375 80.46875 183.214844 C 80.570312 182.699219 80.722656 182.195312 80.925781 181.710938 C 81.128906 181.222656 81.375 180.757812 81.667969 180.320312 C 81.960938 179.882812 82.292969 179.476562 82.667969 179.105469 C 83.039062 178.730469 83.445312 178.398438 83.882812 178.105469 C 84.320312 177.8125 84.785156 177.566406 85.273438 177.363281 C 85.757812 177.160156 86.261719 177.007812 86.777344 176.90625 C 87.296875 176.804688 87.816406 176.75 88.347656 176.75 C 88.875 176.75 89.394531 176.699219 89.914062 176.597656 C 90.429688 176.496094 90.933594 176.34375 91.417969 176.140625 C 91.90625 175.9375 92.371094 175.691406 92.808594 175.398438 C 93.246094 175.105469 93.652344 174.773438 94.023438 174.398438 C 94.398438 174.027344 94.730469 173.621094 95.023438 173.183594 C 95.316406 172.742188 95.5625 172.28125 95.765625 171.792969 C 95.96875 171.304688 96.121094 170.804688 96.222656 170.285156 C 96.324219 169.769531 96.378906 169.246094 96.378906 168.71875 L 96.378906 104.46875 C 96.378906 103.941406 96.324219 103.417969 96.222656 102.902344 C 96.121094 102.382812 95.96875 101.882812 95.765625 101.394531 C 95.5625 100.90625 95.316406 100.445312 95.023438 100.007812 C 94.730469 99.566406 94.398438 99.164062 94.023438 98.789062 C 93.652344 98.417969 93.246094 98.082031 92.808594 97.789062 C 92.371094 97.496094 91.90625 97.25 91.417969 97.046875 C 90.933594 96.847656 90.429688 96.695312 89.914062 96.589844 C 89.394531 96.488281 88.875 96.4375 88.347656 96.4375 C 87.816406 96.4375 87.296875 96.386719 86.777344 96.28125 C 86.261719 96.179688 85.757812 96.027344 85.273438 95.824219 C 84.785156 95.625 84.320312 95.375 83.882812 95.082031 C 83.445312 94.789062 83.039062 94.457031 82.667969 94.085938 C 82.292969 93.710938 81.960938 93.304688 81.667969 92.867188 C 81.375 92.429688 81.128906 91.964844 80.925781 91.480469 C 80.722656 90.992188 80.570312 90.488281 80.46875 89.972656 C 80.367188 89.457031 80.3125 88.933594 80.3125 88.40625 C 80.3125 87.878906 80.367188 87.355469 80.46875 86.839844 C 80.570312 86.320312 80.722656 85.820312 80.925781 85.332031 C 81.128906 84.84375 81.375 84.382812 81.667969 83.945312 C 81.960938 83.503906 82.292969 83.097656 82.667969 82.726562 C 83.039062 82.355469 83.445312 82.019531 83.882812 81.726562 C 84.320312 81.433594 84.785156 81.1875 85.273438 80.984375 C 85.757812 80.785156 86.261719 80.632812 86.777344 80.527344 C 87.296875 80.425781 87.816406 80.375 88.347656 80.375 L 120.472656 80.375 C 121 80.375 121.519531 80.425781 122.039062 80.527344 C 122.554688 80.632812 123.058594 80.785156 123.542969 80.984375 C 124.03125 81.1875 124.496094 81.433594 124.933594 81.726562 C 125.371094 82.019531 125.777344 82.355469 126.152344 82.726562 C 126.523438 83.097656 126.855469 83.503906 127.148438 83.945312 C 127.441406 84.382812 127.691406 84.84375 127.890625 85.332031 C 128.09375 85.820312 128.246094 86.320312 128.347656 86.839844 C 128.453125 87.355469 128.503906 87.878906 128.503906 88.40625 L 128.503906 168.71875 C 128.503906 169.246094 128.554688 169.769531 128.65625 170.285156 C 128.761719 170.804688 128.914062 171.304688 129.113281 171.792969 C 129.316406 172.28125 129.5625 172.742188 129.855469 173.183594 C 130.148438 173.621094 130.480469 174.027344 130.855469 174.398438 C 131.226562 174.773438 131.632812 175.105469 132.070312 175.398438 C 132.511719 175.691406 132.972656 175.9375 133.460938 176.140625 C 133.949219 176.34375 134.449219 176.496094 134.96875 176.597656 C 135.484375 176.699219 136.007812 176.75 136.535156 176.75 C 137.0625 176.75 137.582031 176.804688 138.101562 176.90625 C 138.617188 177.007812 139.121094 177.160156 139.609375 177.363281 C 140.09375 177.566406 140.558594 177.8125 140.996094 178.105469 C 141.433594 178.398438 141.839844 178.730469 142.214844 179.105469 C 142.585938 179.476562 142.917969 179.882812 143.210938 180.320312 C 143.503906 180.757812 143.753906 181.222656 143.953125 181.710938 C 144.15625 182.195312 144.308594 182.699219 144.410156 183.214844 C 144.515625 183.734375 144.566406 184.253906 144.566406 184.78125 Z M 144.566406 184.78125 " fill-opacity="1" fill-rule="nonzero"/></g></svg>