<svg xmlns="http://www.w3.org/2000/svg" xmlns:xlink="http://www.w3.org/1999/xlink" width="300" zoomAndPan="magnify" viewBox="0 0 224.87999 225" height="300" preserveAspectRatio="xMidYMid meet" version="1.0"><defs><clipPath id="ede67062e1"><path d="M 0 0.0585938 L 224.761719 0.0585938 L 224.761719 224.9375 L 0 224.9375 Z M 0 0.0585938 " clip-rule="nonzero"/></clipPath><clipPath id="b05d67e228"><path d="M 1.699219 1.757812 L 222.828125 1.757812 L 222.828125 222.890625 L 1.699219 222.890625 Z M 1.699219 1.757812 " clip-rule="nonzero"/></clipPath></defs><g clip-path="url(#ede67062e1)"><path fill="#ffffff" d="M 0 0.0585938 L 224.878906 0.0585938 L 224.878906 457.316406 L 0 457.316406 Z M 0 0.0585938 " fill-opacity="1" fill-rule="nonzero"/><path fill="#ffffff" d="M 0 0.0585938 L 224.878906 0.0585938 L 224.878906 224.941406 L 0 224.941406 Z M 0 0.0585938 " fill-opacity="1" fill-rule="nonzero"/><path fill="#ffffff" d="M 0 0.0585938 L 224.878906 0.0585938 L 224.878906 224.941406 L 0 224.941406 Z M 0 0.0585938 " fill-opacity="1" fill-rule="nonzero"/></g><g clip-path="url(#b05d67e228)"><path fill="#99b83c" d="M 222.828125 112.324219 C 222.828125 114.132812 222.785156 115.941406 222.695312 117.75 C 222.609375 119.554688 222.472656 121.359375 222.296875 123.160156 C 222.121094 124.960938 221.898438 126.757812 221.632812 128.546875 C 221.367188 130.335938 221.058594 132.121094 220.703125 133.894531 C 220.351562 135.667969 219.957031 137.433594 219.515625 139.1875 C 219.078125 140.945312 218.59375 142.6875 218.070312 144.417969 C 217.542969 146.152344 216.976562 147.867188 216.367188 149.570312 C 215.757812 151.277344 215.105469 152.964844 214.414062 154.636719 C 213.722656 156.308594 212.988281 157.960938 212.214844 159.597656 C 211.441406 161.230469 210.628906 162.847656 209.773438 164.445312 C 208.921875 166.039062 208.03125 167.613281 207.097656 169.164062 C 206.167969 170.71875 205.199219 172.246094 204.195312 173.75 C 203.191406 175.253906 202.148438 176.734375 201.070312 178.1875 C 199.992188 179.640625 198.878906 181.066406 197.730469 182.464844 C 196.585938 183.863281 195.402344 185.234375 194.1875 186.574219 C 192.972656 187.914062 191.726562 189.226562 190.445312 190.503906 C 189.164062 191.785156 187.855469 193.03125 186.515625 194.246094 C 185.175781 195.460938 183.804688 196.644531 182.40625 197.792969 C 181.007812 198.941406 179.582031 200.054688 178.128906 201.132812 C 176.675781 202.207031 175.195312 203.25 173.691406 204.253906 C 172.1875 205.261719 170.65625 206.230469 169.105469 207.160156 C 167.554688 208.089844 165.980469 208.980469 164.382812 209.835938 C 162.789062 210.6875 161.171875 211.5 159.535156 212.273438 C 157.902344 213.046875 156.246094 213.78125 154.574219 214.472656 C 152.902344 215.164062 151.214844 215.816406 149.511719 216.425781 C 147.808594 217.035156 146.089844 217.601562 144.359375 218.128906 C 142.628906 218.652344 140.882812 219.136719 139.128906 219.574219 C 137.375 220.015625 135.609375 220.410156 133.832031 220.765625 C 132.058594 221.117188 130.277344 221.425781 128.488281 221.691406 C 126.695312 221.957031 124.902344 222.179688 123.101562 222.355469 C 121.300781 222.535156 119.496094 222.667969 117.6875 222.757812 C 115.882812 222.84375 114.074219 222.890625 112.261719 222.890625 C 110.453125 222.890625 108.644531 222.84375 106.839844 222.757812 C 105.03125 222.667969 103.226562 222.535156 101.425781 222.355469 C 99.625 222.179688 97.828125 221.957031 96.039062 221.691406 C 94.25 221.425781 92.46875 221.117188 90.691406 220.765625 C 88.917969 220.410156 87.152344 220.015625 85.398438 219.574219 C 83.644531 219.136719 81.898438 218.652344 80.167969 218.128906 C 78.4375 217.601562 76.71875 217.035156 75.015625 216.425781 C 73.3125 215.816406 71.625 215.164062 69.953125 214.472656 C 68.28125 213.78125 66.625 213.046875 64.992188 212.273438 C 63.355469 211.5 61.738281 210.6875 60.144531 209.835938 C 58.546875 208.980469 56.972656 208.089844 55.421875 207.160156 C 53.871094 206.230469 52.339844 205.261719 50.835938 204.253906 C 49.332031 203.25 47.851562 202.207031 46.398438 201.132812 C 44.945312 200.054688 43.519531 198.941406 42.121094 197.792969 C 40.722656 196.644531 39.351562 195.460938 38.011719 194.246094 C 36.671875 193.03125 35.359375 191.785156 34.082031 190.503906 C 32.800781 189.226562 31.554688 187.914062 30.339844 186.574219 C 29.125 185.234375 27.941406 183.863281 26.792969 182.464844 C 25.648438 181.066406 24.535156 179.640625 23.457031 178.1875 C 22.378906 176.734375 21.335938 175.253906 20.332031 173.75 C 19.324219 172.246094 18.359375 170.71875 17.429688 169.164062 C 16.496094 167.613281 15.605469 166.039062 14.753906 164.445312 C 13.898438 162.847656 13.085938 161.230469 12.3125 159.597656 C 11.539062 157.960938 10.804688 156.308594 10.113281 154.636719 C 9.421875 152.964844 8.769531 151.277344 8.160156 149.570312 C 7.550781 147.867188 6.984375 146.152344 6.457031 144.417969 C 5.933594 142.6875 5.449219 140.945312 5.011719 139.1875 C 4.570312 137.433594 4.175781 135.667969 3.820312 133.894531 C 3.46875 132.121094 3.160156 130.335938 2.894531 128.546875 C 2.628906 126.757812 2.40625 124.960938 2.230469 123.160156 C 2.050781 121.359375 1.917969 119.554688 1.832031 117.75 C 1.742188 115.941406 1.699219 114.132812 1.699219 112.324219 C 1.699219 110.515625 1.742188 108.707031 1.832031 106.898438 C 1.917969 105.089844 2.050781 103.285156 2.230469 101.484375 C 2.40625 99.683594 2.628906 97.890625 2.894531 96.101562 C 3.160156 94.308594 3.46875 92.527344 3.820312 90.753906 C 4.175781 88.976562 4.570312 87.214844 5.011719 85.457031 C 5.449219 83.703125 5.933594 81.960938 6.457031 80.226562 C 6.984375 78.496094 7.550781 76.777344 8.160156 75.074219 C 8.769531 73.371094 9.421875 71.683594 10.113281 70.011719 C 10.804688 68.339844 11.539062 66.6875 12.3125 65.050781 C 13.085938 63.414062 13.898438 61.800781 14.753906 60.203125 C 15.605469 58.605469 16.496094 57.035156 17.429688 55.480469 C 18.359375 53.929688 19.324219 52.402344 20.332031 50.894531 C 21.335938 49.390625 22.378906 47.914062 23.457031 46.460938 C 24.535156 45.007812 25.648438 43.578125 26.792969 42.179688 C 27.941406 40.78125 29.125 39.414062 30.339844 38.070312 C 31.554688 36.730469 32.800781 35.421875 34.082031 34.140625 C 35.359375 32.863281 36.671875 31.613281 38.011719 30.398438 C 39.351562 29.183594 40.722656 28.003906 42.121094 26.855469 C 43.519531 25.707031 44.945312 24.59375 46.398438 23.515625 C 47.851562 22.4375 49.332031 21.398438 50.835938 20.390625 C 52.339844 19.386719 53.871094 18.417969 55.421875 17.488281 C 56.972656 16.558594 58.546875 15.667969 60.144531 14.8125 C 61.738281 13.960938 63.355469 13.148438 64.992188 12.375 C 66.625 11.597656 68.28125 10.867188 69.953125 10.175781 C 71.625 9.480469 73.3125 8.832031 75.015625 8.222656 C 76.71875 7.609375 78.4375 7.042969 80.167969 6.519531 C 81.898438 5.992188 83.644531 5.511719 85.398438 5.070312 C 87.152344 4.632812 88.917969 4.234375 90.691406 3.882812 C 92.46875 3.527344 94.25 3.21875 96.039062 2.953125 C 97.828125 2.6875 99.625 2.46875 101.425781 2.289062 C 103.226562 2.113281 105.03125 1.980469 106.839844 1.890625 C 108.644531 1.800781 110.453125 1.757812 112.261719 1.757812 C 114.074219 1.757812 115.882812 1.800781 117.6875 1.890625 C 119.496094 1.980469 121.300781 2.113281 123.101562 2.289062 C 124.902344 2.46875 126.695312 2.6875 128.488281 2.953125 C 130.277344 3.21875 132.058594 3.527344 133.832031 3.882812 C 135.609375 4.234375 137.375 4.632812 139.128906 5.070312 C 140.882812 5.511719 142.628906 5.992188 144.359375 6.519531 C 146.089844 7.042969 147.808594 7.609375 149.511719 8.222656 C 151.214844 8.832031 152.902344 9.480469 154.574219 10.175781 C 156.246094 10.867188 157.902344 11.597656 159.535156 12.375 C 161.171875 13.148438 162.789062 13.960938 164.382812 14.8125 C 165.980469 15.667969 167.554688 16.558594 169.105469 17.488281 C 170.65625 18.417969 172.1875 19.386719 173.691406 20.390625 C 175.195312 21.398438 176.675781 22.4375 178.128906 23.515625 C 179.582031 24.59375 181.007812 25.707031 182.40625 26.855469 C 183.804688 28.003906 185.175781 29.183594 186.515625 30.398438 C 187.855469 31.613281 189.164062 32.863281 190.445312 34.140625 C 191.726562 35.421875 192.972656 36.730469 194.1875 38.070312 C 195.402344 39.414062 196.585938 40.78125 197.730469 42.179688 C 198.878906 43.578125 199.992188 45.007812 201.070312 46.460938 C 202.148438 47.914062 203.191406 49.390625 204.195312 50.894531 C 205.199219 52.402344 206.167969 53.929688 207.097656 55.480469 C 208.03125 57.035156 208.921875 58.605469 209.773438 60.203125 C 210.628906 61.800781 211.441406 63.414062 212.214844 65.050781 C 212.988281 66.6875 213.722656 68.339844 214.414062 70.011719 C 215.105469 71.683594 215.757812 73.371094 216.367188 75.074219 C 216.976562 76.777344 217.542969 78.496094 218.070312 80.226562 C 218.59375 81.960938 219.078125 83.703125 219.515625 85.457031 C 219.957031 87.214844 220.351562 88.976562 220.703125 90.753906 C 221.058594 92.527344 221.367188 94.308594 221.632812 96.101562 C 221.898438 97.890625 222.121094 99.683594 222.296875 101.484375 C 222.472656 103.285156 222.609375 105.089844 222.695312 106.898438 C 222.785156 108.707031 222.828125 110.515625 222.828125 112.324219 Z M 222.828125 112.324219 " fill-opacity="1" fill-rule="nonzero"/></g><path fill="#ffffff" d="M 84.84375 188.570312 L 24.546875 128.277344 L 48.570312 104.253906 L 84.84375 140.519531 L 175.941406 49.410156 L 199.972656 73.433594 Z M 84.84375 188.570312 " fill-opacity="1" fill-rule="nonzero"/></svg>