<svg xmlns="http://www.w3.org/2000/svg" xmlns:xlink="http://www.w3.org/1999/xlink" width="300" zoomAndPan="magnify" viewBox="0 0 224.87999 225" height="300" preserveAspectRatio="xMidYMid meet" version="1.0"><defs><clipPath id="bf6152e512"><path d="M 0 0.0585938 L 224.761719 0.0585938 L 224.761719 224.9375 L 0 224.9375 Z M 0 0.0585938 " clip-rule="nonzero"/></clipPath><clipPath id="ac4be8d124"><path d="M 1.699219 1.757812 L 222.828125 1.757812 L 222.828125 222.890625 L 1.699219 222.890625 Z M 1.699219 1.757812 " clip-rule="nonzero"/></clipPath></defs><g clip-path="url(#bf6152e512)"><path fill="#ffffff" d="M 0 0.0585938 L 224.878906 0.0585938 L 224.878906 224.941406 L 0 224.941406 Z M 0 0.0585938 " fill-opacity="1" fill-rule="nonzero"/><path fill="#ffffff" d="M 0 0.0585938 L 224.878906 0.0585938 L 224.878906 224.941406 L 0 224.941406 Z M 0 0.0585938 " fill-opacity="1" fill-rule="nonzero"/></g><g clip-path="url(#ac4be8d124)"><path fill="#ed1d2b" d="M 222.84375 112.335938 C 222.84375 173.402344 173.339844 222.902344 112.277344 222.902344 C 51.210938 222.902344 1.707031 173.402344 1.707031 112.335938 C 1.707031 51.269531 51.210938 1.769531 112.277344 1.769531 C 173.339844 1.769531 222.84375 51.269531 222.84375 112.335938 " fill-opacity="1" fill-rule="nonzero"/></g><path fill="#ffffff" d="M 166.820312 57.789062 C 161.476562 52.445312 152.8125 52.445312 147.46875 57.789062 L 112.277344 92.980469 L 77.082031 57.789062 C 71.738281 52.445312 63.074219 52.445312 57.730469 57.789062 C 52.382812 63.132812 52.382812 71.800781 57.730469 77.144531 L 92.917969 112.335938 L 57.730469 147.527344 C 52.382812 152.871094 52.382812 161.535156 57.730469 166.882812 C 63.074219 172.226562 71.738281 172.226562 77.082031 166.882812 L 112.277344 131.691406 L 147.46875 166.882812 C 152.8125 172.226562 161.476562 172.226562 166.820312 166.882812 C 172.167969 161.535156 172.167969 152.871094 166.820312 147.527344 L 131.632812 112.335938 L 166.820312 77.144531 C 172.167969 71.800781 172.167969 63.132812 166.820312 57.789062 " fill-opacity="1" fill-rule="nonzero"/></svg>