<svg xmlns="http://www.w3.org/2000/svg" xmlns:xlink="http://www.w3.org/1999/xlink" width="300" zoomAndPan="magnify" viewBox="0 0 224.87999 225" height="300" preserveAspectRatio="xMidYMid meet" version="1.0"><defs><clipPath id="0180abf853"><path d="M 33.730469 0.0585938 L 191.148438 0.0585938 L 191.148438 224.9375 L 33.730469 224.9375 Z M 33.730469 0.0585938 " clip-rule="nonzero"/></clipPath></defs><g clip-path="url(#0180abf853)"><path fill="#9c0d38" d="M 112.441406 0.0585938 C 68.980469 0.0585938 33.730469 35.308594 33.730469 78.769531 C 33.730469 137.800781 112.441406 224.941406 112.441406 224.941406 C 112.441406 224.941406 191.148438 137.800781 191.148438 78.769531 C 191.148438 35.308594 155.898438 0.0585938 112.441406 0.0585938 Z M 112.441406 106.878906 C 96.921875 106.878906 84.328125 94.285156 84.328125 78.769531 C 84.328125 63.25 96.921875 50.65625 112.441406 50.65625 C 127.957031 50.65625 140.550781 63.25 140.550781 78.769531 C 140.550781 94.285156 127.957031 106.878906 112.441406 106.878906 Z M 112.441406 106.878906 " fill-opacity="1" fill-rule="nonzero"/></g></svg>