<svg xmlns="http://www.w3.org/2000/svg" xmlns:xlink="http://www.w3.org/1999/xlink" width="300" zoomAndPan="magnify" viewBox="0 0 224.87999 225" height="300" preserveAspectRatio="xMidYMid meet" version="1.0"><defs><clipPath id="9c6648c9e0"><path d="M 19.128906 19.191406 L 205.78125 19.191406 L 205.78125 204 L 19.128906 204 Z M 19.128906 19.191406 " clip-rule="nonzero"/></clipPath><clipPath id="5a391ccc0e"><path d="M 43 125 L 200 125 L 200 205.839844 L 43 205.839844 Z M 43 125 " clip-rule="nonzero"/></clipPath></defs><g clip-path="url(#9c6648c9e0)"><path fill="#9c0d38" d="M 158.664062 104.046875 C 157.582031 104.265625 156.464844 104.382812 155.320312 104.382812 C 146.011719 104.382812 138.4375 96.808594 138.4375 87.5 C 138.4375 86.355469 138.550781 85.238281 138.769531 84.15625 C 140.328125 76.445312 147.15625 70.617188 155.320312 70.617188 C 164.628906 70.617188 172.203125 78.191406 172.203125 87.5 C 172.203125 95.664062 166.375 102.492188 158.664062 104.046875 Z M 134.140625 79.523438 C 133.992188 91.359375 124.324219 100.9375 112.457031 100.9375 C 100.589844 100.9375 90.917969 91.359375 90.769531 79.523438 C 90.765625 79.433594 90.765625 79.339844 90.765625 79.25 C 90.765625 67.289062 100.496094 57.5625 112.457031 57.5625 C 124.414062 57.5625 134.144531 67.289062 134.144531 79.25 C 134.144531 79.339844 134.144531 79.433594 134.140625 79.523438 Z M 69.589844 104.382812 C 68.445312 104.382812 67.328125 104.265625 66.246094 104.046875 C 58.535156 102.492188 52.707031 95.664062 52.707031 87.5 C 52.707031 78.191406 60.28125 70.617188 69.589844 70.617188 C 77.753906 70.617188 84.585938 76.445312 86.140625 84.15625 C 86.359375 85.238281 86.472656 86.355469 86.472656 87.5 C 86.472656 96.808594 78.898438 104.382812 69.589844 104.382812 Z M 112.457031 19.1875 C 60.914062 19.1875 19.128906 60.972656 19.128906 112.515625 C 19.128906 156.625 49.734375 193.589844 90.867188 203.332031 L 43.515625 155.980469 L 43.054688 155.980469 L 43.054688 135.144531 C 43.054688 131.695312 43.714844 128.398438 44.921875 125.371094 C 47.617188 118.589844 53.035156 113.171875 59.816406 110.476562 C 62.839844 109.273438 66.140625 108.609375 69.589844 108.609375 C 76.945312 108.609375 83.613281 111.621094 88.421875 116.46875 C 94.59375 110.34375 103.09375 106.550781 112.457031 106.550781 C 121.820312 106.550781 130.316406 110.34375 136.488281 116.472656 C 141.296875 111.621094 147.964844 108.609375 155.320312 108.609375 C 158.769531 108.609375 162.070312 109.273438 165.09375 110.476562 C 171.878906 113.171875 177.296875 118.589844 179.992188 125.375 L 199.875 145.257812 C 203.691406 135.070312 205.78125 124.035156 205.78125 112.515625 C 205.78125 60.972656 164 19.1875 112.457031 19.1875 " fill-opacity="1" fill-rule="nonzero"/></g><path fill="#3e3d3f" d="M 43.054688 155.519531 L 43.515625 155.980469 L 43.054688 155.980469 Z M 43.054688 155.519531 " fill-opacity="1" fill-rule="nonzero"/><g clip-path="url(#5a391ccc0e)"><path fill="#9c0d38" d="M 199.875 145.257812 C 186.613281 180.648438 152.476562 205.839844 112.457031 205.839844 C 105.023438 205.839844 97.796875 204.972656 90.867188 203.332031 L 43.515625 155.980469 L 78.320312 155.980469 L 78.320312 167.464844 L 146.589844 167.464844 L 146.589844 155.980469 L 181.855469 155.980469 L 181.855469 135.144531 C 181.855469 131.699219 181.195312 128.398438 179.992188 125.375 L 199.875 145.257812 " fill-opacity="1" fill-rule="nonzero"/></g><path fill="#3e3d3f" d="M 146.589844 140.6875 L 146.589844 167.464844 L 78.320312 167.464844 L 78.320312 140.6875 C 78.320312 131.226562 82.1875 122.65625 88.421875 116.46875 C 94.59375 110.34375 103.09375 106.550781 112.457031 106.550781 C 121.820312 106.550781 130.316406 110.34375 136.488281 116.472656 C 142.722656 122.65625 146.589844 131.226562 146.589844 140.6875 " fill-opacity="1" fill-rule="nonzero"/><path fill="#ffffff" d="M 86.472656 87.5 C 86.472656 96.808594 78.898438 104.382812 69.589844 104.382812 C 68.445312 104.382812 67.328125 104.265625 66.246094 104.046875 C 58.535156 102.492188 52.707031 95.664062 52.707031 87.5 C 52.707031 78.191406 60.28125 70.617188 69.589844 70.617188 C 77.753906 70.617188 84.585938 76.445312 86.140625 84.15625 C 86.359375 85.238281 86.472656 86.355469 86.472656 87.5 " fill-opacity="1" fill-rule="nonzero"/><path fill="#ffffff" d="M 88.421875 116.46875 C 82.1875 122.65625 78.320312 131.226562 78.320312 140.6875 L 78.320312 155.980469 L 43.515625 155.980469 L 43.054688 155.519531 L 43.054688 135.144531 C 43.054688 131.695312 43.714844 128.398438 44.921875 125.371094 C 47.617188 118.589844 53.035156 113.171875 59.816406 110.476562 C 62.839844 109.273438 66.140625 108.609375 69.589844 108.609375 C 76.945312 108.609375 83.613281 111.621094 88.421875 116.46875 " fill-opacity="1" fill-rule="nonzero"/><path fill="#ffffff" d="M 43.054688 155.519531 L 43.515625 155.980469 L 43.054688 155.980469 Z M 43.054688 155.519531 " fill-opacity="1" fill-rule="nonzero"/><path fill="#ffffff" d="M 96.125 135.144531 L 96.125 155.980469 L 78.320312 155.980469 L 78.320312 140.6875 C 78.320312 131.226562 82.1875 122.65625 88.421875 116.46875 C 93.183594 121.265625 96.125 127.867188 96.125 135.144531 " fill-opacity="1" fill-rule="nonzero"/><path fill="#ffffff" d="M 172.203125 87.5 C 172.203125 95.664062 166.375 102.492188 158.664062 104.046875 C 157.582031 104.265625 156.464844 104.382812 155.320312 104.382812 C 146.011719 104.382812 138.4375 96.808594 138.4375 87.5 C 138.4375 86.355469 138.550781 85.238281 138.769531 84.15625 C 140.328125 76.445312 147.15625 70.617188 155.320312 70.617188 C 164.628906 70.617188 172.203125 78.191406 172.203125 87.5 " fill-opacity="1" fill-rule="nonzero"/><path fill="#ffffff" d="M 181.855469 135.144531 L 181.855469 155.980469 L 146.589844 155.980469 L 146.589844 140.6875 C 146.589844 131.226562 142.722656 122.65625 136.488281 116.472656 C 141.296875 111.621094 147.964844 108.609375 155.320312 108.609375 C 158.769531 108.609375 162.070312 109.273438 165.09375 110.476562 C 171.878906 113.171875 177.296875 118.589844 179.992188 125.375 C 181.195312 128.398438 181.855469 131.699219 181.855469 135.144531 " fill-opacity="1" fill-rule="nonzero"/><path fill="#ffffff" d="M 146.589844 140.6875 L 146.589844 155.980469 L 128.785156 155.980469 L 128.785156 135.144531 C 128.785156 127.871094 131.726562 121.269531 136.488281 116.472656 C 142.722656 122.65625 146.589844 131.226562 146.589844 140.6875 " fill-opacity="1" fill-rule="nonzero"/><path fill="#ffffff" d="M 134.144531 79.25 C 134.144531 79.339844 134.144531 79.433594 134.140625 79.523438 C 133.992188 91.359375 124.324219 100.9375 112.457031 100.9375 C 100.589844 100.9375 90.917969 91.359375 90.769531 79.523438 C 90.765625 79.433594 90.765625 79.339844 90.765625 79.25 C 90.765625 67.289062 100.496094 57.5625 112.457031 57.5625 C 124.414062 57.5625 134.144531 67.289062 134.144531 79.25 " fill-opacity="1" fill-rule="nonzero"/><path fill="#ffffff" d="M 146.589844 140.6875 L 146.589844 167.464844 L 78.320312 167.464844 L 78.320312 140.6875 C 78.320312 131.226562 82.1875 122.65625 88.421875 116.46875 C 94.59375 110.34375 103.09375 106.550781 112.457031 106.550781 C 121.820312 106.550781 130.316406 110.34375 136.488281 116.472656 C 142.722656 122.65625 146.589844 131.226562 146.589844 140.6875 " fill-opacity="1" fill-rule="nonzero"/></svg>