<svg xmlns="http://www.w3.org/2000/svg" xmlns:xlink="http://www.w3.org/1999/xlink" width="300" zoomAndPan="magnify" viewBox="0 0 224.87999 225" height="300" preserveAspectRatio="xMidYMid meet" version="1.0"><defs><clipPath id="8c8507948c"><path d="M 9 32 L 216 32 L 216 193 L 9 193 Z M 9 32 " clip-rule="nonzero"/></clipPath><clipPath id="2ad26dfb78"><path d="M 83.324219 84.75 C 93.300781 65.003906 113.527344 51.59375 136.761719 51.59375 C 169.789062 51.59375 196.769531 78.75 196.769531 112.5 C 196.769531 146.25 169.789062 173.40625 136.761719 173.40625 C 113.527344 173.40625 93.300781 159.996094 83.324219 140.25 C 80.988281 135.628906 75.351562 133.777344 70.734375 136.113281 C 66.117188 138.445312 64.261719 144.082031 66.597656 148.699219 C 79.597656 174.425781 106.09375 192.144531 136.761719 192.144531 C 180.363281 192.144531 215.511719 156.375 215.511719 112.5 C 215.511719 68.625 180.363281 32.855469 136.761719 32.855469 C 106.09375 32.855469 79.597656 50.574219 66.597656 76.300781 C 64.261719 80.917969 66.117188 86.554688 70.734375 88.886719 C 75.351562 91.222656 80.988281 89.371094 83.324219 84.75 Z M 58.160156 73.078125 C 54.5 69.421875 48.570312 69.421875 44.910156 73.078125 L 12.113281 105.875 L 12.054688 105.9375 L 44.910156 73.078125 L 12.121094 119.132812 L 44.910156 151.921875 C 48.570312 155.578125 54.5 155.578125 58.160156 151.921875 C 61.820312 148.261719 61.820312 142.328125 58.160156 138.667969 L 41.359375 121.871094 L 131.179688 121.871094 C 136.355469 121.871094 140.550781 117.675781 140.550781 112.5 C 140.550781 107.324219 136.355469 103.128906 131.179688 103.128906 L 41.359375 103.128906 L 58.160156 86.332031 C 61.820312 82.671875 61.820312 76.738281 58.160156 73.078125 Z M 9.371094 112.5 C 9.371094 111.230469 9.621094 110.019531 10.082031 108.914062 C 9.132812 111.203125 9.132812 113.796875 10.082031 116.085938 C 9.621094 114.980469 9.371094 113.769531 9.371094 112.5 Z M 9.371094 112.5 " clip-rule="evenodd"/></clipPath></defs><g clip-path="url(#8c8507948c)"><g clip-path="url(#2ad26dfb78)"><path fill="#9c0d38" d="M 9.132812 32.855469 L 9.132812 192.144531 L 215.511719 192.144531 L 215.511719 32.855469 Z M 9.132812 32.855469 " fill-opacity="1" fill-rule="nonzero"/></g></g></svg>