<svg xmlns="http://www.w3.org/2000/svg" xmlns:xlink="http://www.w3.org/1999/xlink" width="300" zoomAndPan="magnify" viewBox="0 0 224.87999 225" height="300" preserveAspectRatio="xMidYMid meet" version="1.0"><defs><clipPath id="fe7c83ac7d"><path d="M 0 0.0585938 L 224.761719 0.0585938 L 224.761719 224.9375 L 0 224.9375 Z M 0 0.0585938 " clip-rule="nonzero"/></clipPath></defs><g clip-path="url(#fe7c83ac7d)"><path fill="#9c0d38" d="M 112.441406 0.0585938 C 50.441406 0.0585938 0 50.5 0 112.5 C 0 174.5 50.441406 224.941406 112.441406 224.941406 C 174.4375 224.941406 224.878906 174.5 224.878906 112.5 C 224.878906 50.5 174.4375 0.0585938 112.441406 0.0585938 Z M 112.441406 209.949219 C 58.707031 209.949219 14.992188 166.234375 14.992188 112.5 C 14.992188 58.765625 58.707031 15.050781 112.441406 15.050781 C 166.175781 15.050781 209.886719 58.765625 209.886719 112.5 C 209.886719 166.234375 166.175781 209.949219 112.441406 209.949219 Z M 112.441406 209.949219 " fill-opacity="1" fill-rule="nonzero"/></g><path fill="#9c0d38" d="M 151.660156 105.003906 L 119.9375 105.003906 L 119.9375 73.28125 C 119.9375 69.140625 116.578125 65.785156 112.441406 65.785156 C 108.300781 65.785156 104.945312 69.140625 104.945312 73.28125 L 104.945312 105.003906 L 73.222656 105.003906 C 69.082031 105.003906 65.726562 108.359375 65.726562 112.5 C 65.726562 116.640625 69.082031 119.996094 73.222656 119.996094 L 104.945312 119.996094 L 104.945312 151.71875 C 104.945312 155.859375 108.300781 159.214844 112.441406 159.214844 C 116.578125 159.214844 119.9375 155.859375 119.9375 151.71875 L 119.9375 119.996094 L 151.660156 119.996094 C 155.796875 119.996094 159.15625 116.640625 159.15625 112.5 C 159.15625 108.359375 155.796875 105.003906 151.660156 105.003906 Z M 151.660156 105.003906 " fill-opacity="1" fill-rule="nonzero"/></svg>