<svg xmlns="http://www.w3.org/2000/svg" xmlns:xlink="http://www.w3.org/1999/xlink" width="300" zoomAndPan="magnify" viewBox="0 0 224.87999 225" height="300" preserveAspectRatio="xMidYMid meet" version="1.0"><defs><clipPath id="4f2cf5a739"><path d="M 16.023438 0.0585938 L 208.667969 0.0585938 L 208.667969 224.9375 L 16.023438 224.9375 Z M 16.023438 0.0585938 " clip-rule="nonzero"/></clipPath></defs><g clip-path="url(#4f2cf5a739)"><path fill="#9c0d38" d="M 204.617188 0.0585938 L 52.167969 0.0585938 C 51.90625 0.0585938 51.644531 0.0859375 51.386719 0.136719 C 51.128906 0.1875 50.878906 0.265625 50.632812 0.367188 C 50.390625 0.464844 50.160156 0.589844 49.941406 0.738281 C 49.722656 0.882812 49.519531 1.050781 49.332031 1.234375 C 49.144531 1.421875 48.980469 1.625 48.832031 1.84375 C 48.6875 2.0625 48.5625 2.296875 48.460938 2.539062 C 48.363281 2.78125 48.285156 3.035156 48.234375 3.292969 C 48.183594 3.550781 48.15625 3.8125 48.15625 4.074219 L 48.15625 32.1875 L 20.074219 32.1875 C 19.8125 32.1875 19.550781 32.210938 19.292969 32.261719 C 19.035156 32.3125 18.78125 32.390625 18.539062 32.492188 C 18.296875 32.59375 18.066406 32.714844 17.847656 32.863281 C 17.625 33.007812 17.425781 33.175781 17.238281 33.363281 C 17.050781 33.546875 16.886719 33.75 16.738281 33.96875 C 16.59375 34.191406 16.46875 34.421875 16.367188 34.664062 C 16.265625 34.910156 16.191406 35.160156 16.140625 35.417969 C 16.089844 35.675781 16.0625 35.9375 16.0625 36.203125 L 16.0625 220.925781 C 16.0625 221.1875 16.089844 221.449219 16.140625 221.707031 C 16.191406 221.964844 16.265625 222.21875 16.367188 222.460938 C 16.46875 222.703125 16.59375 222.9375 16.738281 223.15625 C 16.886719 223.375 17.050781 223.578125 17.238281 223.765625 C 17.425781 223.949219 17.625 224.117188 17.847656 224.261719 C 18.066406 224.410156 18.296875 224.535156 18.539062 224.632812 C 18.78125 224.734375 19.035156 224.8125 19.292969 224.863281 C 19.550781 224.914062 19.8125 224.941406 20.074219 224.941406 L 168.511719 224.941406 C 168.773438 224.941406 169.035156 224.914062 169.292969 224.863281 C 169.550781 224.8125 169.804688 224.734375 170.046875 224.632812 C 170.289062 224.535156 170.519531 224.410156 170.742188 224.261719 C 170.960938 224.117188 171.164062 223.949219 171.347656 223.765625 C 171.535156 223.578125 171.699219 223.375 171.847656 223.15625 C 171.992188 222.9375 172.117188 222.703125 172.21875 222.460938 C 172.320312 222.21875 172.394531 221.964844 172.445312 221.707031 C 172.496094 221.449219 172.523438 221.1875 172.523438 220.925781 L 172.523438 192.8125 L 204.617188 192.8125 C 204.882812 192.8125 205.140625 192.789062 205.402344 192.738281 C 205.660156 192.6875 205.910156 192.609375 206.152344 192.507812 C 206.398438 192.40625 206.628906 192.285156 206.847656 192.136719 C 207.066406 191.992188 207.269531 191.824219 207.453125 191.636719 C 207.640625 191.453125 207.808594 191.25 207.953125 191.03125 C 208.101562 190.808594 208.222656 190.578125 208.324219 190.335938 C 208.425781 190.089844 208.5 189.839844 208.550781 189.582031 C 208.605469 189.324219 208.628906 189.0625 208.628906 188.796875 L 208.628906 4.074219 C 208.628906 3.8125 208.605469 3.550781 208.550781 3.292969 C 208.5 3.035156 208.425781 2.78125 208.324219 2.539062 C 208.222656 2.296875 208.101562 2.0625 207.953125 1.84375 C 207.808594 1.625 207.640625 1.421875 207.453125 1.234375 C 207.269531 1.050781 207.066406 0.882812 206.847656 0.738281 C 206.628906 0.589844 206.398438 0.464844 206.152344 0.367188 C 205.910156 0.265625 205.660156 0.1875 205.402344 0.136719 C 205.140625 0.0859375 204.882812 0.0585938 204.617188 0.0585938 Z M 164.5 216.910156 L 24.085938 216.910156 L 24.085938 40.21875 L 48.15625 40.21875 L 48.15625 188.796875 C 48.15625 189.0625 48.183594 189.324219 48.234375 189.582031 C 48.285156 189.839844 48.363281 190.089844 48.460938 190.335938 C 48.5625 190.578125 48.6875 190.808594 48.832031 191.03125 C 48.980469 191.25 49.144531 191.453125 49.332031 191.636719 C 49.519531 191.824219 49.722656 191.992188 49.941406 192.136719 C 50.160156 192.285156 50.390625 192.40625 50.632812 192.507812 C 50.878906 192.609375 51.128906 192.6875 51.386719 192.738281 C 51.644531 192.789062 51.90625 192.8125 52.167969 192.8125 L 164.5 192.8125 Z M 200.605469 184.78125 L 56.179688 184.78125 L 56.179688 8.089844 L 200.605469 8.089844 Z M 200.605469 184.78125 " fill-opacity="1" fill-rule="nonzero"/></g><path fill="#9c0d38" d="M 76.238281 120.53125 L 180.546875 120.53125 C 180.808594 120.53125 181.070312 120.503906 181.328125 120.453125 C 181.589844 120.402344 181.839844 120.328125 182.082031 120.226562 C 182.324219 120.125 182.558594 120 182.777344 119.855469 C 182.996094 119.707031 183.199219 119.542969 183.382812 119.355469 C 183.570312 119.167969 183.738281 118.964844 183.882812 118.746094 C 184.027344 118.527344 184.152344 118.296875 184.253906 118.050781 C 184.355469 117.808594 184.429688 117.558594 184.480469 117.300781 C 184.53125 117.039062 184.558594 116.78125 184.558594 116.515625 C 184.558594 116.253906 184.53125 115.992188 184.480469 115.730469 C 184.429688 115.472656 184.355469 115.222656 184.253906 114.980469 C 184.152344 114.734375 184.027344 114.503906 183.882812 114.285156 C 183.738281 114.066406 183.570312 113.863281 183.382812 113.675781 C 183.199219 113.488281 182.996094 113.324219 182.777344 113.175781 C 182.558594 113.03125 182.324219 112.90625 182.082031 112.804688 C 181.839844 112.703125 181.589844 112.628906 181.328125 112.578125 C 181.070312 112.527344 180.808594 112.5 180.546875 112.5 L 76.238281 112.5 C 75.976562 112.5 75.714844 112.527344 75.457031 112.578125 C 75.199219 112.628906 74.949219 112.703125 74.703125 112.804688 C 74.460938 112.90625 74.230469 113.03125 74.011719 113.175781 C 73.792969 113.324219 73.589844 113.488281 73.402344 113.675781 C 73.21875 113.863281 73.050781 114.066406 72.902344 114.285156 C 72.757812 114.503906 72.632812 114.734375 72.535156 114.980469 C 72.433594 115.222656 72.355469 115.472656 72.304688 115.730469 C 72.253906 115.992188 72.226562 116.253906 72.226562 116.515625 C 72.226562 116.78125 72.253906 117.039062 72.304688 117.300781 C 72.355469 117.558594 72.433594 117.808594 72.535156 118.050781 C 72.632812 118.296875 72.757812 118.527344 72.902344 118.746094 C 73.050781 118.964844 73.21875 119.167969 73.402344 119.355469 C 73.589844 119.542969 73.792969 119.707031 74.011719 119.855469 C 74.230469 120 74.460938 120.125 74.703125 120.226562 C 74.949219 120.328125 75.199219 120.402344 75.457031 120.453125 C 75.714844 120.503906 75.976562 120.53125 76.238281 120.53125 Z M 76.238281 120.53125 " fill-opacity="1" fill-rule="nonzero"/><path fill="#9c0d38" d="M 76.238281 144.625 L 180.546875 144.625 C 180.808594 144.625 181.070312 144.601562 181.328125 144.546875 C 181.589844 144.496094 181.839844 144.421875 182.082031 144.320312 C 182.324219 144.21875 182.558594 144.09375 182.777344 143.949219 C 182.996094 143.800781 183.199219 143.636719 183.382812 143.449219 C 183.570312 143.261719 183.738281 143.058594 183.882812 142.839844 C 184.027344 142.621094 184.152344 142.390625 184.253906 142.148438 C 184.355469 141.902344 184.429688 141.652344 184.480469 141.394531 C 184.53125 141.136719 184.558594 140.875 184.558594 140.609375 C 184.558594 140.347656 184.53125 140.085938 184.480469 139.828125 C 184.429688 139.566406 184.355469 139.316406 184.253906 139.074219 C 184.152344 138.828125 184.027344 138.597656 183.882812 138.378906 C 183.738281 138.160156 183.570312 137.957031 183.382812 137.769531 C 183.199219 137.585938 182.996094 137.417969 182.777344 137.269531 C 182.558594 137.125 182.324219 137 182.082031 136.898438 C 181.839844 136.800781 181.589844 136.722656 181.328125 136.671875 C 181.070312 136.621094 180.808594 136.59375 180.546875 136.59375 L 76.238281 136.59375 C 75.976562 136.59375 75.714844 136.621094 75.457031 136.671875 C 75.199219 136.722656 74.949219 136.800781 74.703125 136.898438 C 74.460938 137 74.230469 137.125 74.011719 137.269531 C 73.792969 137.417969 73.589844 137.585938 73.402344 137.769531 C 73.21875 137.957031 73.050781 138.160156 72.902344 138.378906 C 72.757812 138.597656 72.632812 138.828125 72.535156 139.074219 C 72.433594 139.316406 72.355469 139.566406 72.304688 139.828125 C 72.253906 140.085938 72.226562 140.347656 72.226562 140.609375 C 72.226562 140.875 72.253906 141.136719 72.304688 141.394531 C 72.355469 141.652344 72.433594 141.902344 72.535156 142.148438 C 72.632812 142.390625 72.757812 142.621094 72.902344 142.839844 C 73.050781 143.058594 73.21875 143.261719 73.402344 143.449219 C 73.589844 143.636719 73.792969 143.800781 74.011719 143.949219 C 74.230469 144.09375 74.460938 144.21875 74.703125 144.320312 C 74.949219 144.421875 75.199219 144.496094 75.457031 144.546875 C 75.714844 144.601562 75.976562 144.625 76.238281 144.625 Z M 76.238281 144.625 " fill-opacity="1" fill-rule="nonzero"/><path fill="#9c0d38" d="M 76.238281 168.71875 L 180.546875 168.71875 C 180.808594 168.71875 181.070312 168.695312 181.328125 168.644531 C 181.589844 168.589844 181.839844 168.515625 182.082031 168.414062 C 182.324219 168.3125 182.558594 168.191406 182.777344 168.042969 C 182.996094 167.898438 183.199219 167.730469 183.382812 167.542969 C 183.570312 167.355469 183.738281 167.15625 183.882812 166.933594 C 184.027344 166.714844 184.152344 166.484375 184.253906 166.242188 C 184.355469 165.996094 184.429688 165.746094 184.480469 165.488281 C 184.53125 165.230469 184.558594 164.96875 184.558594 164.703125 C 184.558594 164.441406 184.53125 164.179688 184.480469 163.921875 C 184.429688 163.664062 184.355469 163.410156 184.253906 163.167969 C 184.152344 162.925781 184.027344 162.691406 183.882812 162.472656 C 183.738281 162.253906 183.570312 162.050781 183.382812 161.863281 C 183.199219 161.679688 182.996094 161.511719 182.777344 161.367188 C 182.558594 161.21875 182.324219 161.09375 182.082031 160.996094 C 181.839844 160.894531 181.589844 160.816406 181.328125 160.765625 C 181.070312 160.714844 180.808594 160.6875 180.546875 160.6875 L 76.238281 160.6875 C 75.976562 160.6875 75.714844 160.714844 75.457031 160.765625 C 75.199219 160.816406 74.949219 160.894531 74.703125 160.996094 C 74.460938 161.09375 74.230469 161.21875 74.011719 161.367188 C 73.792969 161.511719 73.589844 161.679688 73.402344 161.863281 C 73.21875 162.050781 73.050781 162.253906 72.902344 162.472656 C 72.757812 162.691406 72.632812 162.925781 72.535156 163.167969 C 72.433594 163.410156 72.355469 163.664062 72.304688 163.921875 C 72.253906 164.179688 72.226562 164.441406 72.226562 164.703125 C 72.226562 164.96875 72.253906 165.230469 72.304688 165.488281 C 72.355469 165.746094 72.433594 165.996094 72.535156 166.242188 C 72.632812 166.484375 72.757812 166.714844 72.902344 166.933594 C 73.050781 167.15625 73.21875 167.355469 73.402344 167.542969 C 73.589844 167.730469 73.792969 167.898438 74.011719 168.042969 C 74.230469 168.191406 74.460938 168.3125 74.703125 168.414062 C 74.949219 168.515625 75.199219 168.589844 75.457031 168.644531 C 75.714844 168.695312 75.976562 168.71875 76.238281 168.71875 Z M 76.238281 168.71875 " fill-opacity="1" fill-rule="nonzero"/><path fill="#9c0d38" d="M 156.476562 96.4375 L 180.546875 96.4375 C 180.808594 96.4375 181.070312 96.410156 181.328125 96.359375 C 181.589844 96.308594 181.839844 96.230469 182.082031 96.132812 C 182.324219 96.03125 182.558594 95.90625 182.777344 95.761719 C 182.996094 95.613281 183.199219 95.449219 183.382812 95.261719 C 183.570312 95.074219 183.738281 94.871094 183.882812 94.652344 C 184.027344 94.433594 184.152344 94.203125 184.253906 93.957031 C 184.355469 93.714844 184.429688 93.464844 184.480469 93.203125 C 184.53125 92.945312 184.558594 92.683594 184.558594 92.421875 L 184.558594 28.171875 C 184.558594 27.90625 184.53125 27.644531 184.480469 27.386719 C 184.429688 27.128906 184.355469 26.875 184.253906 26.632812 C 184.152344 26.390625 184.027344 26.160156 183.882812 25.9375 C 183.738281 25.71875 183.570312 25.515625 183.382812 25.332031 C 183.199219 25.144531 182.996094 24.976562 182.777344 24.832031 C 182.558594 24.683594 182.324219 24.5625 182.082031 24.460938 C 181.839844 24.359375 181.589844 24.28125 181.328125 24.230469 C 181.070312 24.179688 180.808594 24.15625 180.546875 24.15625 L 156.476562 24.15625 C 156.210938 24.15625 155.953125 24.179688 155.695312 24.230469 C 155.433594 24.28125 155.183594 24.359375 154.941406 24.460938 C 154.699219 24.5625 154.464844 24.683594 154.246094 24.832031 C 154.027344 24.976562 153.824219 25.144531 153.640625 25.332031 C 153.453125 25.515625 153.285156 25.71875 153.140625 25.9375 C 152.996094 26.160156 152.871094 26.390625 152.769531 26.632812 C 152.667969 26.875 152.59375 27.128906 152.542969 27.386719 C 152.488281 27.644531 152.464844 27.90625 152.464844 28.171875 L 152.464844 92.421875 C 152.464844 92.683594 152.488281 92.945312 152.542969 93.203125 C 152.59375 93.464844 152.667969 93.714844 152.769531 93.957031 C 152.871094 94.203125 152.996094 94.433594 153.140625 94.652344 C 153.285156 94.871094 153.453125 95.074219 153.640625 95.261719 C 153.824219 95.449219 154.027344 95.613281 154.246094 95.761719 C 154.464844 95.90625 154.699219 96.03125 154.941406 96.132812 C 155.183594 96.230469 155.433594 96.308594 155.695312 96.359375 C 155.953125 96.410156 156.210938 96.4375 156.476562 96.4375 Z M 160.488281 32.1875 L 176.535156 32.1875 L 176.535156 88.40625 L 160.488281 88.40625 Z M 160.488281 32.1875 " fill-opacity="1" fill-rule="nonzero"/><path fill="#9c0d38" d="M 116.359375 96.4375 L 140.429688 96.4375 C 140.691406 96.4375 140.953125 96.410156 141.210938 96.359375 C 141.46875 96.308594 141.722656 96.230469 141.964844 96.132812 C 142.207031 96.03125 142.4375 95.90625 142.65625 95.761719 C 142.875 95.613281 143.078125 95.449219 143.265625 95.261719 C 143.453125 95.074219 143.617188 94.871094 143.765625 94.652344 C 143.910156 94.433594 144.035156 94.203125 144.136719 93.957031 C 144.234375 93.714844 144.3125 93.464844 144.363281 93.203125 C 144.414062 92.945312 144.441406 92.683594 144.441406 92.421875 L 144.441406 52.265625 C 144.441406 52 144.414062 51.738281 144.363281 51.480469 C 144.3125 51.222656 144.234375 50.972656 144.136719 50.726562 C 144.035156 50.484375 143.910156 50.253906 143.765625 50.035156 C 143.617188 49.8125 143.453125 49.609375 143.265625 49.425781 C 143.078125 49.238281 142.875 49.070312 142.65625 48.925781 C 142.4375 48.777344 142.207031 48.65625 141.964844 48.554688 C 141.722656 48.453125 141.46875 48.378906 141.210938 48.324219 C 140.953125 48.273438 140.691406 48.25 140.429688 48.25 L 116.359375 48.25 C 116.09375 48.25 115.832031 48.273438 115.574219 48.324219 C 115.316406 48.378906 115.066406 48.453125 114.824219 48.554688 C 114.578125 48.65625 114.347656 48.777344 114.128906 48.925781 C 113.910156 49.070312 113.707031 49.238281 113.519531 49.425781 C 113.335938 49.609375 113.167969 49.8125 113.023438 50.035156 C 112.875 50.253906 112.753906 50.484375 112.652344 50.726562 C 112.550781 50.972656 112.476562 51.222656 112.421875 51.480469 C 112.371094 51.738281 112.347656 52 112.347656 52.265625 L 112.347656 92.421875 C 112.347656 92.683594 112.371094 92.945312 112.421875 93.203125 C 112.476562 93.464844 112.550781 93.714844 112.652344 93.957031 C 112.753906 94.203125 112.875 94.433594 113.023438 94.652344 C 113.167969 94.871094 113.335938 95.074219 113.519531 95.261719 C 113.707031 95.449219 113.910156 95.613281 114.128906 95.761719 C 114.347656 95.90625 114.578125 96.03125 114.824219 96.132812 C 115.066406 96.230469 115.316406 96.308594 115.574219 96.359375 C 115.832031 96.410156 116.09375 96.4375 116.359375 96.4375 Z M 120.371094 56.28125 L 136.417969 56.28125 L 136.417969 88.40625 L 120.371094 88.40625 Z M 120.371094 56.28125 " fill-opacity="1" fill-rule="nonzero"/><path fill="#9c0d38" d="M 76.238281 96.4375 L 100.3125 96.4375 C 100.574219 96.4375 100.835938 96.410156 101.09375 96.359375 C 101.351562 96.308594 101.601562 96.230469 101.847656 96.132812 C 102.089844 96.03125 102.320312 95.90625 102.539062 95.761719 C 102.757812 95.613281 102.960938 95.449219 103.148438 95.261719 C 103.332031 95.074219 103.5 94.871094 103.648438 94.652344 C 103.792969 94.433594 103.917969 94.203125 104.015625 93.957031 C 104.117188 93.714844 104.195312 93.464844 104.246094 93.203125 C 104.296875 92.945312 104.324219 92.683594 104.324219 92.421875 L 104.324219 68.328125 C 104.324219 68.0625 104.296875 67.800781 104.246094 67.542969 C 104.195312 67.285156 104.117188 67.035156 104.015625 66.789062 C 103.917969 66.546875 103.792969 66.316406 103.648438 66.097656 C 103.5 65.875 103.332031 65.675781 103.148438 65.488281 C 102.960938 65.300781 102.757812 65.132812 102.539062 64.988281 C 102.320312 64.839844 102.089844 64.71875 101.847656 64.617188 C 101.601562 64.515625 101.351562 64.441406 101.09375 64.386719 C 100.835938 64.335938 100.574219 64.3125 100.3125 64.3125 L 76.238281 64.3125 C 75.976562 64.3125 75.714844 64.335938 75.457031 64.386719 C 75.199219 64.441406 74.949219 64.515625 74.703125 64.617188 C 74.460938 64.71875 74.230469 64.839844 74.011719 64.988281 C 73.792969 65.132812 73.589844 65.300781 73.402344 65.488281 C 73.21875 65.675781 73.050781 65.875 72.902344 66.097656 C 72.757812 66.316406 72.632812 66.546875 72.535156 66.789062 C 72.433594 67.035156 72.355469 67.285156 72.304688 67.542969 C 72.253906 67.800781 72.226562 68.0625 72.226562 68.328125 L 72.226562 92.421875 C 72.226562 92.683594 72.253906 92.945312 72.304688 93.203125 C 72.355469 93.464844 72.433594 93.714844 72.535156 93.957031 C 72.632812 94.203125 72.757812 94.433594 72.902344 94.652344 C 73.050781 94.871094 73.21875 95.074219 73.402344 95.261719 C 73.589844 95.449219 73.792969 95.613281 74.011719 95.761719 C 74.230469 95.90625 74.460938 96.03125 74.703125 96.132812 C 74.949219 96.230469 75.199219 96.308594 75.457031 96.359375 C 75.714844 96.410156 75.976562 96.4375 76.238281 96.4375 Z M 80.25 72.34375 L 96.300781 72.34375 L 96.300781 88.40625 L 80.25 88.40625 Z M 80.25 72.34375 " fill-opacity="1" fill-rule="nonzero"/></svg>