<svg xmlns="http://www.w3.org/2000/svg" xmlns:xlink="http://www.w3.org/1999/xlink" width="300" zoomAndPan="magnify" viewBox="0 0 224.87999 225" height="300" preserveAspectRatio="xMidYMid meet" version="1.0"><defs><clipPath id="f6c1a7905c"><path d="M 0 0.0585938 L 224.761719 0.0585938 L 224.761719 224.9375 L 0 224.9375 Z M 0 0.0585938 " clip-rule="nonzero"/></clipPath></defs><g clip-path="url(#f6c1a7905c)"><path fill="#9c0d38" d="M 112.441406 0.0585938 C 50.4375 0.0585938 0 50.496094 0 112.5 C 0 174.503906 50.4375 224.941406 112.441406 224.941406 C 174.441406 224.941406 224.878906 174.503906 224.878906 112.5 C 224.878906 50.496094 174.441406 0.0585938 112.441406 0.0585938 Z M 112.441406 18.800781 C 164.304688 18.800781 206.140625 60.636719 206.140625 112.5 C 206.140625 164.363281 164.304688 206.199219 112.441406 206.199219 C 60.574219 206.199219 18.738281 164.363281 18.738281 112.5 C 18.738281 60.636719 60.574219 18.800781 112.441406 18.800781 Z M 112.441406 56.28125 C 84.621094 56.28125 61.601562 76.59375 57.097656 103.128906 L 76.425781 103.128906 C 80.597656 86.988281 95.019531 75.019531 112.441406 75.019531 C 122.796875 75.019531 132.058594 79.300781 138.792969 86.148438 L 121.808594 103.128906 L 168.660156 103.128906 L 168.660156 56.28125 L 151.96875 72.96875 C 141.792969 62.796875 127.921875 56.28125 112.441406 56.28125 Z M 56.21875 121.871094 L 56.21875 168.71875 L 72.910156 152.03125 C 83.085938 162.203125 96.957031 168.71875 112.441406 168.71875 C 140.257812 168.71875 163.28125 148.40625 167.78125 121.871094 L 148.457031 121.871094 C 144.285156 138.011719 129.863281 149.980469 112.441406 149.980469 C 102.082031 149.980469 92.820312 145.699219 86.085938 138.851562 L 103.070312 121.871094 Z M 56.21875 121.871094 " fill-opacity="1" fill-rule="nonzero"/></g></svg>