<?xml version="1.0" encoding="UTF-8" standalone="no"?>
<svg
   xmlns:dc="http://purl.org/dc/elements/1.1/"
   xmlns:cc="http://creativecommons.org/ns#"
   xmlns:rdf="http://www.w3.org/1999/02/22-rdf-syntax-ns#"
   xmlns:svg="http://www.w3.org/2000/svg"
   xmlns="http://www.w3.org/2000/svg"
   xmlns:sodipodi="http://sodipodi.sourceforge.net/DTD/sodipodi-0.dtd"
   xmlns:inkscape="http://www.inkscape.org/namespaces/inkscape"
   inkscape:version="1.0 (4035a4fb49, 2020-05-01)"
   height="118.18182"
   width="200"
   sodipodi:docname="users.svg"
   xml:space="preserve"
   viewBox="0 0 200 118.18182"
   version="1.0"
   id="Layer_1"
   enable-background="new 0 0 24 24"><metadata
     id="metadata41"><rdf:RDF><cc:Work
         rdf:about=""><dc:format>image/svg+xml</dc:format><dc:type
           rdf:resource="http://purl.org/dc/dcmitype/StillImage" /></cc:Work></rdf:RDF></metadata><defs
     id="defs39" /><sodipodi:namedview
     inkscape:current-layer="Layer_1"
     inkscape:window-maximized="1"
     inkscape:window-y="-8"
     inkscape:window-x="-8"
     inkscape:cy="48.619171"
     inkscape:cx="90.327622"
     inkscape:zoom="1"
     showgrid="false"
     id="namedview37"
     inkscape:window-height="745"
     inkscape:window-width="1299"
     inkscape:pageshadow="2"
     inkscape:pageopacity="0"
     guidetolerance="10"
     gridtolerance="10"
     objecttolerance="10"
     borderopacity="1"
     bordercolor="#666666"
     pagecolor="#ffffff" /><g
     transform="matrix(9.0909091,0,0,9.0909091,-9.0909091,-54.545455)"
     id="g60"><g
       id="g4"
       style="fill:#000080"><path
         d="m 9,9 c 0,-1.7 1.3,-3 3,-3 1.7,0 3,1.3 3,3 0,1.7 -1.3,3 -3,3 -1.7,0 -3,-1.3 -3,-3 z m 3,5 C 7.4,14 6,17.3 6,17.3 V 19 h 12 v -1.7 c 0,0 -1.4,-3.3 -6,-3.3 z"
         id="path2"
         style="fill:#000080" /></g><g
       id="g14"><g
         id="g8"><circle
           cx="18.5"
           cy="8.5"
           r="2.5"
           id="circle6" /></g><g
         id="g12"><path
           d="m 18.5,13 c -1.2,0 -2.1,0.3 -2.8,0.8 2.3,1.1 3.2,3 3.2,3.2 v 0.1 H 23 V 15.8 C 23,15.7 21.9,13 18.5,13 Z"
           id="path10" /></g></g><g
       id="g24"
       style="fill:#000080"><g
         id="g18"
         style="fill:#000080"><circle
           cx="18.5"
           cy="8.5"
           r="2.5"
           id="circle16"
           style="fill:#000080" /></g><g
         id="g22"
         style="fill:#000080"><path
           d="m 18.5,13 c -1.2,0 -2.1,0.3 -2.8,0.8 2.3,1.1 3.2,3 3.2,3.2 v 0.1 H 23 V 15.8 C 23,15.7 21.9,13 18.5,13 Z"
           id="path20"
           style="fill:#000080" /></g></g><g
       id="g34"
       style="fill:#000080"><g
         id="g28"
         style="fill:#000080"><circle
           cx="5.5"
           cy="8.5"
           r="2.5"
           id="circle26"
           style="fill:#000080" /></g><g
         id="g32"
         style="fill:#000080"><path
           d="m 5.5,13 c 1.2,0 2.1,0.3 2.8,0.8 -2.3,1.1 -3.2,3 -3.2,3.2 v 0.1 H 1 V 15.8 C 1,15.7 2.1,13 5.5,13 Z"
           id="path30"
           style="fill:#000080" /></g></g></g></svg>
