<?xml version="1.0" encoding="UTF-8" standalone="no"?>
<svg
   xmlns:dc="http://purl.org/dc/elements/1.1/"
   xmlns:cc="http://creativecommons.org/ns#"
   xmlns:rdf="http://www.w3.org/1999/02/22-rdf-syntax-ns#"
   xmlns:svg="http://www.w3.org/2000/svg"
   xmlns="http://www.w3.org/2000/svg"
   xmlns:sodipodi="http://sodipodi.sourceforge.net/DTD/sodipodi-0.dtd"
   xmlns:inkscape="http://www.inkscape.org/namespaces/inkscape"
   width="120"
   height="85.856331"
   viewBox="0 0 120 85.85633"
   fill="none"
   version="1.1"
   id="svg188"
   sodipodi:docname="mysplash.svg"
   inkscape:version="1.0 (4035a4fb49, 2020-05-01)">
  <metadata
     id="metadata192">
    <rdf:RDF>
      <cc:Work
         rdf:about="">
        <dc:format>image/svg+xml</dc:format>
        <dc:type
           rdf:resource="http://purl.org/dc/dcmitype/StillImage" />
      </cc:Work>
    </rdf:RDF>
  </metadata>
  <sodipodi:namedview
     inkscape:document-rotation="0"
     pagecolor="#ffffff"
     bordercolor="#666666"
     borderopacity="1"
     objecttolerance="10"
     gridtolerance="10"
     guidetolerance="10"
     inkscape:pageopacity="0"
     inkscape:pageshadow="2"
     inkscape:window-width="1299"
     inkscape:window-height="745"
     id="namedview190"
     showgrid="false"
     inkscape:zoom="1.0396203"
     inkscape:cx="232.1655"
     inkscape:cy="119.83229"
     inkscape:window-x="-8"
     inkscape:window-y="-8"
     inkscape:window-maximized="1"
     inkscape:current-layer="svg188" />
  <g
     id="g241"
     transform="matrix(0.79999998,0,0,0.79999998,-0.64980478,-0.30878879)">
    <path
       style="fill:url(#paint0_linear);stroke-width:0.476347"
       id="path2"
       fill="url(#paint0_linear)"
       d="m 52.874437,88.3353 5.568016,-0.33249 -0.04954,-0.926018 C 58.111869,81.91605 58.008025,78.534465 59.257483,76.85058 60.50694,75.166695 64.044766,74.028226 71.08374,73.043618 l -0.783114,-5.604695 c -7.847334,1.097979 -12.910422,2.437943 -15.583679,6.036741 -2.469381,3.324898 -2.23883,7.546281 -1.890144,13.936476 z" />
    <path
       style="fill:url(#paint1_linear);stroke-width:0.476347"
       id="path4"
       fill="url(#paint1_linear)"
       d="m 102.77698,88.3353 -5.56801,-0.33249 0.04958,-0.926018 C 97.539597,81.91605 97.643442,78.534465 96.39398,76.85058 95.144525,75.166695 88.981077,73.71098 81.3581,72.638247 l 3.994642,-5.196942 c 7.847813,1.097979 12.910898,2.437942 15.584158,6.036741 2.46938,3.324901 2.23883,7.546284 1.89014,13.935999 z" />
    <path
       style="stroke-width:0.476347"
       id="path6"
       fill="#522cd5"
       d="m 97.269945,84.143445 4.398105,-0.02048 4.10563,23.521985 -8.82718,0.041 c -0.6726,0.002 -1.181813,-0.53874 -1.136558,-1.21086 z" />
    <path
       style="fill:url(#paint2_linear);stroke-width:0.476347"
       id="path8"
       fill="url(#paint2_linear)"
       d="m 115.18534,101.46151 c 0.76263,0.60162 0.74929,1.47333 0.69022,2.3922 l -0.18292,2.81807 c -0.0343,0.50493 -0.47349,0.91888 -0.97794,0.92125 l -9.19872,0.0405 c -0.57257,0.002 -1.00509,-0.45919 -0.96651,-1.02986 l 0.061,-2.91952 c 0.0701,-1.06179 -0.28723,-1.45096 -1.10893,-2.45129 -1.40808,-1.709128 -5.570403,-11.02313 -5.174553,-17.091785 l 4.529103,-0.02003 c 0.30105,3.601185 5.05451,11.599995 12.32928,17.340455 z" />
    <path
       style="fill:url(#paint3_radial);stroke-width:0.476347"
       id="path10"
       fill="url(#paint3_radial)"
       d="m 115.87556,103.85371 c 0.0434,-0.64259 0.0548,-1.2585 -0.19673,-1.77915 l -11.47328,0.0519 c 0.31677,0.46635 0.45015,0.8741 0.40728,1.55527 l -0.061,2.92001 c -0.0386,0.57257 0.39584,1.03415 0.96651,1.02986 l 9.19873,-0.041 c 0.50445,-0.002 0.94364,-0.41633 0.97746,-0.92126 z" />
    <path
       style="fill:url(#paint4_linear);stroke-width:0.476347"
       id="path12"
       fill="url(#paint4_linear)"
       d="m 63.304522,103.10443 c 0.0024,-0.63117 -0.09051,-1.18611 -0.362023,-2.10736 C 58.759223,89.725275 58.385767,84.03246 58.385767,84.03246 h -5.63137 c 0,0 -0.360117,5.586112 -4.542917,16.85838 -0.330346,0.80359 -0.366549,1.53717 -0.407324,2.21359 l -0.0067,3.6126 c 0,0.54542 0.446003,0.98937 0.989039,0.98937 h 0.271518 12.992353 0.271994 c 0.547322,0 0.988895,-0.44395 0.988895,-0.98937 z" />
    <path
       style="fill:url(#paint5_radial);stroke-width:0.476347"
       id="path14"
       fill="url(#paint5_radial)"
       d="m 63.304522,103.10443 c 0,-0.10194 -0.0024,-0.2015 -0.0067,-0.30106 -0.02953,-0.31439 -0.176725,-0.66784 -0.865045,-0.66784 H 48.539683 c -0.502356,0.0205 -0.665361,0.40538 -0.71514,0.64736 -0.0068,0.1067 -0.01586,0.21531 -0.02038,0.31915 l -0.0068,3.61262 c 0,0.33963 0.174296,0.64306 0.436953,0.81931 0.158148,0.1067 0.348686,0.17006 0.552086,0.17006 h 0.271518 12.992353 0.271994 c 0.273423,0 0.520171,-0.111 0.699277,-0.28962 0.17863,-0.17911 0.289619,-0.42585 0.289619,-0.69975 z" />
    <path
       style="stroke-width:0.476347"
       id="path16"
       fill="#8577e5"
       d="m 35.452393,40.123446 4.891365,-2.580369 c 1.308286,-0.679033 2.917623,-0.167484 3.596655,1.140802 0.679032,1.308286 0.167484,2.917623 -1.140802,3.596655 l -5.013548,2.64601 z" />
    <path
       style="stroke-width:0.476347"
       id="path18"
       fill="#8a6fe8"
       d="m 111.19736,61.959032 c -4.61294,0 -9.13537,-4.132783 -13.463458,-12.317847 l 5.002588,-2.64582 c 1.24041,2.344769 5.54753,9.938686 8.91102,9.255129 2.8657,-0.581619 5.68377,-7.020872 6.10676,-11.964493 l 5.63852,0.482111 c -0.27628,3.234441 -1.33091,6.932796 -2.81807,9.893766 -2.03019,4.042278 -4.72821,6.509753 -7.80208,7.134243 -0.52541,0.108608 -1.05035,0.162911 -1.57528,0.162911 z" />
    <path
       style="stroke-width:0.476347"
       id="path20"
       fill="#8577e5"
       d="m 118.16203,39.68435 -5.01355,-2.331383 c -1.33997,-0.611105 -2.92239,-0.02034 -3.53592,1.319623 -0.61115,1.339962 -0.02,2.922148 1.31995,3.535539 l 5.14026,2.390213 z" />
    <path
       style="stroke-width:0.476347"
       id="path22"
       fill="#b3afab"
       d="M 1.7583871,39.944674 H 149.86623 c 0.52303,0 0.94603,-0.423282 0.94603,-0.94612 v -0.959696 c 0,-0.522885 -0.423,-0.946167 -0.94603,-0.946167 H 1.7583871 c -0.5228619,0 -0.9461311,0.423282 -0.9461311,0.946167 v 0.959696 c 0,0.522838 0.4232692,0.94612 0.9461311,0.94612 z" />
    <path
       style="fill:url(#paint6_radial);stroke-width:0.476347"
       id="path24"
       fill="url(#paint6_radial)"
       d="m 120.97295,47.925861 c 3.08387,0 5.58421,-2.500201 5.58421,-5.584164 0,-3.083963 -2.50034,-5.583973 -5.58421,-5.583973 -3.08387,0 -5.58373,2.50001 -5.58373,5.583973 0,3.083963 2.49986,5.584164 5.58373,5.584164 z" />
    <path
       style="stroke-width:0.476347"
       id="path26"
       fill="#8577e5"
       d="m 118.06009,42.952802 c -1.47144,0 -2.66421,-1.192819 -2.66421,-2.664111 v -3.26388 c 0,-1.471291 1.19277,-2.664111 2.66421,-2.664111 1.47096,0 2.66421,1.19282 2.66421,2.664111 v 3.26388 c 0,1.471292 -1.19325,2.664111 -2.66421,2.664111 z" />
    <path
       style="stroke-width:0.476347"
       id="path28"
       fill="#8577e5"
       d="m 122.35626,42.952802 c -1.47143,0 -2.66421,-1.192819 -2.66421,-2.664111 v -3.26388 c 0,-1.471291 1.19278,-2.664111 2.66421,-2.664111 1.47096,0 2.66373,1.19282 2.66373,2.664111 v 3.26388 c 0,1.471292 -1.19277,2.664111 -2.66373,2.664111 z" />
    <path
       style="stroke-width:0.476347"
       id="path30"
       fill="#8577e5"
       d="m 126.65005,42.21718 c -1.47144,0 -2.66421,-1.192867 -2.66421,-2.664111 v -2.358535 c 0,-1.471244 1.19277,-2.664112 2.66421,-2.664112 1.47096,0 2.66373,1.192868 2.66373,2.664112 v 2.358535 c 0.002,1.469005 -1.1904,2.664111 -2.66373,2.664111 z" />
    <path
       style="fill:url(#paint7_radial);stroke-width:0.476347"
       id="path32"
       fill="url(#paint7_radial)"
       d="m 145.6315,27.205831 c -0.009,-0.0023 -0.0319,-0.0023 -0.0319,-0.0023 -0.82836,0 -4.9116,0 -4.9116,0 0,0 -0.21055,22.265679 0,22.265679 0.21054,0 4.48623,0 4.9116,0 1.34235,0 2.43318,-4.984062 2.43318,-11.131649 -0.002,-6.104572 -1.07273,-11.059292 -2.40126,-11.131744 z" />
    <path
       style="fill:url(#paint8_radial);stroke-width:0.476347"
       id="path34"
       fill="url(#paint8_radial)"
       d="m 139.40233,24.691102 c -0.0115,-0.0023 -0.0386,-0.0023 -0.0386,-0.0023 -1.01605,0 -6.02055,0 -6.02055,0 0,0 -0.25818,27.299758 0,27.299758 0.2577,0 5.50228,0 6.02055,0 1.64768,0 2.98335,-6.111432 2.98335,-13.648759 -0.002,-7.485311 -1.31519,-13.560493 -2.94477,-13.64876 z" />
    <path
       style="stroke-width:0.476347"
       id="path36"
       fill="#605d5a"
       d="m 133.34081,51.986239 c 1.64768,0 2.98336,-6.110669 2.98336,-13.648664 0,-7.537995 -1.33568,-13.648712 -2.98336,-13.648712 -1.64768,0 -2.98336,6.110717 -2.98336,13.648712 0,7.537995 1.33568,13.648664 2.98336,13.648664 z" />
    <path
       style="stroke-width:0.476347"
       id="path38"
       fill="#b3afab"
       d="m 132.56675,37.090452 h -3.02194 v 2.854222 h 3.02194 c 0.52255,0 0.94602,-0.423282 0.94602,-0.94612 V 38.03881 c 0,-0.522837 -0.42347,-0.948358 -0.94602,-0.948358 z" />
    <path
       style="fill:url(#paint9_radial);stroke-width:0.476347"
       id="path40"
       fill="url(#paint9_radial)"
       d="m 19.329727,27.205831 c -0.0091,-0.0023 -0.03172,-0.0023 -0.03172,-0.0023 -0.828415,0 -4.911705,0 -4.911705,0 0,0 -0.210498,22.265679 0,22.265679 0.210497,0 4.486184,0 4.911705,0 1.344536,0 2.433226,-4.984062 2.433226,-11.131649 -0.0023,-6.104572 -1.072875,-11.059292 -2.401502,-11.131744 z" />
    <path
       style="fill:url(#paint10_radial);stroke-width:0.476347"
       id="path42"
       fill="url(#paint10_radial)"
       d="m 13.100638,24.691102 c -0.01134,-0.0023 -0.03849,-0.0023 -0.03849,-0.0023 -1.016285,0 -6.02083,0 -6.02083,0 0,0 -0.258037,27.299758 0,27.299758 0.2580369,0 5.502518,0 6.02083,0 1.647827,0 2.983264,-6.111432 2.983264,-13.648759 -0.0023,-7.485311 -1.315097,-13.560493 -2.944774,-13.64876 z" />
    <path
       style="stroke-width:0.476347"
       id="path44"
       fill="#605d5a"
       d="m 7.0390799,51.986239 c 1.6475879,0 2.9832641,-6.110669 2.9832641,-13.648664 0,-7.537995 -1.3356762,-13.648712 -2.9832641,-13.648712 -1.6476353,0 -2.9832684,6.110717 -2.9832684,13.648712 0,7.537995 1.3356331,13.648664 2.9832684,13.648664 z" />
    <path
       style="fill:url(#paint11_radial);stroke-width:0.476347"
       id="path46"
       fill="url(#paint11_radial)"
       d="m 98.931435,53.140903 c 3.005275,0 5.441305,-2.436512 5.441305,-5.441592 0,-3.005223 -2.43603,-5.441403 -5.441305,-5.441403 -3.005265,0 -5.441303,2.43618 -5.441303,5.441403 0,3.00508 2.436038,5.441592 5.441303,5.441592 z" />
    <path
       style="fill:url(#paint12_radial);stroke-width:0.476347"
       id="path48"
       fill="url(#paint12_radial)"
       d="m 99.873172,53.159004 c 1.957788,-7.517177 0.694998,-13.517621 0.694998,-13.517621 h 1.76772 l 0.0429,-0.03396 C 99.846022,25.813851 87.763492,15.361139 73.23635,15.361139 c -16.364888,0 -29.630904,13.266206 -29.630904,29.631094 0,16.364697 13.266016,29.63095 29.630904,29.63095 12.913277,0 23.895452,-8.261756 27.95393,-19.785057 0.12003,-0.488731 0.11098,-1.367114 -1.317108,-1.679122 z" />
    <path
       style="stroke-width:0.476347"
       id="path50"
       fill="#d8cff7"
       d="M 98.786632,59.998866 H 47.690976 c 1.147376,1.94921 2.510204,3.753134 4.05833,5.382716 H 94.73292 c 1.543365,-1.629582 2.908575,-3.433506 4.053712,-5.382716 z" />
    <path
       style="fill:url(#paint13_radial);stroke-width:0.476347"
       id="path52"
       fill="url(#paint13_radial)"
       d="m 99.873172,53.159004 c 1.933018,-7.424385 0.726438,-13.365999 0.696898,-13.510856 H 69.827613 c 0,0 -1.937302,-0.196922 -1.937302,1.573086 0,1.770057 0.07241,6.767981 0.07241,12.297413 0,1.136086 0.930306,1.683885 1.663403,1.683885 0,-0.0019 26.817836,-0.0043 30.247053,-2.043528 z" />
    <path
       style="stroke-width:0.476347"
       id="path54"
       fill="#a08be8"
       d="m 81.358057,53.174724 c 0,0 4.728218,-3.741702 5.649473,-4.434311 0.923632,-0.692607 1.72914,-0.731191 2.575605,0 0.846945,0.731193 5.579452,4.434311 5.579452,4.434311 z" />
    <path
       style="stroke-width:0.476347"
       id="path56"
       fill="#512bd4"
       d="m 101.07499,55.180143 c 0,0 0.8217,-1.580041 -1.199905,-2.021139 0.0023,-0.0071 -30.22372,-0.02287 -30.22372,-0.02287 -0.70404,0 -1.609575,-0.418709 -1.686267,-1.102266 0,0.488731 0.0019,0.982227 0.0019,1.482391 0,1.032243 0.767394,1.57766 1.455715,1.668165 0.06764,0.0091 0.138141,0.01619 0.208163,0.01619 h 2.066392 z" />
    <path
       style="stroke-width:0.476347"
       id="path58"
       fill="#512bd4"
       d="m 82.917615,66.984012 9.698895,-0.0443 -0.03908,-8.578526 -9.698895,0.0443 z" />
    <path
       style="stroke-width:0.476347"
       id="path60"
       fill="#ffffff"
       d="m 84.594832,63.776771 c -0.06578,0 -0.120037,-0.02048 -0.165292,-0.06335 -0.04523,-0.04335 -0.0681,-0.09765 -0.0681,-0.156241 0,-0.06098 0.02287,-0.115277 0.0681,-0.158624 0.04523,-0.04525 0.09955,-0.06574 0.165292,-0.06574 0.06525,0 0.119565,0.02287 0.16482,0.06574 0.04523,0.04335 0.0705,0.09765 0.0705,0.158624 0,0.06097 -0.02287,0.112893 -0.0681,0.156241 -0.04762,0.04049 -0.101932,0.06335 -0.167197,0.06335 z" />
    <path
       style="stroke-width:0.476347"
       id="path62"
       fill="#ffffff"
       d="m 87.172822,63.736281 h -0.41871 l -1.109407,-1.741047 c -0.02715,-0.04287 -0.0519,-0.09051 -0.07005,-0.137664 h -0.0091 c 0.0091,0.04954 0.0138,0.158148 0.0138,0.325821 l 0.0023,1.554796 h -0.37107 l -0.0045,-2.372206 h 0.446332 l 1.070355,1.700081 c 0.04523,0.07002 0.07478,0.120039 0.08813,0.144809 h 0.0075 c -0.0114,-0.06335 -0.0162,-0.16958 -0.0162,-0.319152 l -0.0023,-1.527644 h 0.368693 z" />
    <path
       style="stroke-width:0.476347"
       id="path64"
       fill="#ffffff"
       d="m 88.97913,63.731518 -1.299473,0.0024 -0.0045,-2.372206 1.247078,-0.0024 v 0.334872 l -0.862665,0.0024 0.0023,0.672126 0.794542,-0.0019 v 0.33249 l -0.794542,0.0024 0.0023,0.701658 0.914587,-0.0024 z" />
    <path
       style="stroke-width:0.476347"
       id="path66"
       fill="#ffffff"
       d="m 90.82164,61.689897 -0.66546,0.0024 0.0045,2.036858 h -0.384893 l -0.0045,-2.036858 -0.663555,0.0019 V 61.3593 l 1.711515,-0.0043 z" />
    <path
       style="stroke-width:0.476347"
       id="path68"
       fill="#8577e5"
       d="m 75.755745,13.570743 h -5.726638 l 0.808361,-5.8782601 h 4.110394 z" />
    <path
       style="stroke-width:0.476347"
       id="path70"
       fill="#d8cff7"
       d="m 72.813353,8.5435236 c 2.252643,0 4.078477,-1.8261223 4.078477,-4.0787654 0,-2.2526431 -1.825834,-4.0787722 -4.078477,-4.0787722 -2.252643,0 -4.078956,1.8261291 -4.078956,4.0787722 0,2.2526431 1.826313,4.0787654 4.078956,4.0787654 z" />
    <path
       style="fill:url(#paint14_radial);stroke-width:0.476347"
       id="path72"
       fill="url(#paint14_radial)"
       d="m 77.94456,17.162825 c 0.25818,0 0.463957,-0.224073 0.436807,-0.479872 -0.303435,-2.718415 -2.607517,-4.832488 -5.405103,-4.832488 -2.799965,0 -5.101673,2.114073 -5.405105,4.832488 -0.02953,0.255799 0.17863,0.479872 0.43681,0.479872 z" />
    <path
       style="fill:url(#paint15_linear);stroke-width:0.476347"
       id="path74"
       fill="url(#paint15_linear)"
       d="m 45.398082,62.126706 c -0.411945,0 -0.826128,-0.02953 -1.240359,-0.08622 -7.60978,-1.0613 -11.783625,-11.532352 -12.928952,-16.921546 l 5.534194,-1.174766 c 1.199632,5.649852 4.771374,12.019082 8.175632,12.494476 2.691264,0.375838 6.163354,-3.064814 9.531601,-9.43876 l 5.002116,2.646057 c -4.384295,8.288908 -9.11251,12.480758 -14.074232,12.480759 z" />
    <path
       style="fill:url(#paint16_radial);stroke-width:0.476347"
       id="path76"
       fill="url(#paint16_radial)"
       d="m 55.80111,54.30176 c 3.005271,0 5.441308,-2.436036 5.441308,-5.441307 0,-3.005128 -2.436037,-5.441308 -5.441308,-5.441308 -3.005271,0 -5.441306,2.43618 -5.441306,5.441308 0,3.005271 2.436035,5.441307 5.441306,5.441307 z" />
    <path
       style="fill:url(#paint17_radial);stroke-width:0.476347"
       id="path78"
       fill="url(#paint17_radial)"
       d="m 33.58278,47.925861 c 3.083963,0 5.583973,-2.500201 5.583973,-5.584164 0,-3.083963 -2.50001,-5.583973 -5.583973,-5.583973 -3.083963,0 -5.583973,2.50001 -5.583973,5.583973 0,3.083963 2.50001,5.584164 5.583973,5.584164 z" />
    <path
       style="stroke-width:0.476347"
       id="path80"
       fill="#8577e5"
       d="m 35.834947,42.237616 c 1.471244,0 2.664111,-1.192868 2.664111,-2.664112 v -3.263927 c 0,-1.471244 -1.192867,-2.664111 -2.664111,-2.664111 -1.471244,0 -2.664111,1.192867 -2.664111,2.664111 v 3.263927 c 0,1.471244 1.192867,2.664112 2.664111,2.664112 z" />
    <path
       style="stroke-width:0.476347"
       id="path82"
       fill="#8577e5"
       d="m 31.541159,42.237616 c 1.471244,0 2.664063,-1.192868 2.664063,-2.664112 v -3.263927 c 0,-1.471244 -1.192819,-2.664111 -2.664063,-2.664111 -1.471292,0 -2.664111,1.192867 -2.664111,2.664111 v 3.263927 c -0.0023,1.471244 1.192819,2.664112 2.664111,2.664112 z" />
    <path
       style="stroke-width:0.476347"
       id="path84"
       fill="#8577e5"
       d="m 27.245084,41.499659 c 1.471244,0 2.664063,-1.192819 2.664063,-2.664064 v -2.358534 c 0,-1.471292 -1.192819,-2.664112 -2.664063,-2.664112 -1.471292,0 -2.664111,1.19282 -2.664111,2.664112 v 2.358534 c 0,1.471245 1.192819,2.664064 2.664111,2.664064 z" />
    <path
       style="stroke-width:0.476347"
       id="path86"
       fill="#b3afab"
       d="M 6.264969,37.090452 H 3.2432262 v 2.854222 H 6.264969 c 0.522838,0 0.9461196,-0.423282 0.9461196,-0.94612 V 38.03881 c 0,-0.522837 -0.4232816,-0.948358 -0.9461196,-0.948358 z" />
    <path
       style="stroke-width:0.476347"
       id="path88"
       fill="#512bd4"
       d="m 94.221322,45.413228 c -0.03195,0.239888 -0.05003,0.488874 -0.0543,0.742386 -0.03195,2.152754 0.979845,3.911425 2.258835,3.931432 1.27899,0.0181 2.34267,-1.708656 2.376488,-3.861266 0.0091,-0.545465 -0.0519,-1.063825 -0.165285,-1.536885 z" />
    <path
       style="stroke-width:0.476347"
       id="path90"
       fill="#8065e0"
       d="m 95.907592,45.137042 c -0.179107,0.712996 0.0091,1.500683 0.567803,2.057484 0.579712,0.579476 1.405702,0.762774 2.141655,0.547799 0.124327,-0.46401 0.196732,-0.977845 0.205785,-1.516545 0.0091,-0.547751 -0.0519,-1.066112 -0.167678,-1.54141 z" />
    <path
       style="stroke-width:0.476347"
       id="path92"
       fill="#512bd4"
       d="m 75.649523,44.768112 c -0.104325,0.454958 -0.158625,0.952883 -0.149573,1.473483 0.03195,2.152515 1.095592,3.881653 2.376495,3.861646 1.281367,-0.02048 2.290747,-1.779154 2.259307,-3.931812 -0.0045,-0.230838 -0.02047,-0.457198 -0.04762,-0.676746 z" />
    <path
       style="stroke-width:0.476347"
       id="path94"
       fill="#8065e0"
       d="m 77.299582,45.039724 c -0.282945,0.769539 -0.117652,1.66588 0.500168,2.281558 0.577335,0.576951 1.39665,0.758439 2.127367,0.549799 0.14052,-0.515836 0.217688,-1.090786 0.208635,-1.699652 -0.0045,-0.230886 -0.02047,-0.457198 -0.04523,-0.676794 z" />
  </g>
  <defs
     id="defs186">
    <linearGradient
       id="paint0_linear"
       x1="128.94299"
       y1="141.157"
       x2="128.94299"
       y2="185.01801"
       gradientUnits="userSpaceOnUse"
       gradientTransform="matrix(0.47634662,0,0,0.47634662,0.42534061,0.20212288)">
      <stop
         stop-color="#522CD5"
         id="stop96" />
      <stop
         offset="0.4397"
         stop-color="#8A6FE8"
         id="stop98" />
    </linearGradient>
    <linearGradient
       id="paint1_linear"
       x1="192.661"
       y1="141.157"
       x2="192.661"
       y2="185.01801"
       gradientUnits="userSpaceOnUse"
       gradientTransform="matrix(0.47634662,0,0,0.47634662,0.42534061,0.20212288)">
      <stop
         stop-color="#522CD5"
         id="stop101" />
      <stop
         offset="0.4397"
         stop-color="#8A6FE8"
         id="stop103" />
    </linearGradient>
    <linearGradient
       id="paint2_linear"
       x1="207.674"
       y1="174.981"
       x2="237.035"
       y2="227.326"
       gradientUnits="userSpaceOnUse"
       gradientTransform="matrix(0.47634662,0,0,0.47634662,0.42534061,0.20212288)">
      <stop
         stop-color="#522CD5"
         id="stop106" />
      <stop
         offset="0.4397"
         stop-color="#8A6FE8"
         id="stop108" />
    </linearGradient>
    <radialGradient
       id="paint3_radial"
       cx="0"
       cy="0"
       r="1"
       gradientUnits="userSpaceOnUse"
       gradientTransform="matrix(9.6925529,-0.04410907,0.04410907,9.6925529,109.77023,97.386833)">
      <stop
         offset="0.034"
         stop-color="#522CD5"
         id="stop111" />
      <stop
         offset="0.9955"
         stop-color="#8A6FE8"
         id="stop113" />
    </radialGradient>
    <linearGradient
       id="paint4_linear"
       x1="115.729"
       y1="175.98199"
       x2="115.729"
       y2="225.68401"
       gradientUnits="userSpaceOnUse"
       gradientTransform="matrix(0.47634662,0,0,0.47634662,0.42534061,0.20212288)">
      <stop
         stop-color="#522CD5"
         id="stop116" />
      <stop
         offset="0.4397"
         stop-color="#8A6FE8"
         id="stop118" />
    </linearGradient>
    <radialGradient
       id="paint5_radial"
       cx="0"
       cy="0"
       r="1"
       gradientUnits="userSpaceOnUse"
       gradientTransform="matrix(10.686027,0,0,10.686027,55.211394,97.371113)">
      <stop
         offset="0.034"
         stop-color="#522CD5"
         id="stop121" />
      <stop
         offset="0.9955"
         stop-color="#8A6FE8"
         id="stop123" />
    </radialGradient>
    <radialGradient
       id="paint6_radial"
       cx="0"
       cy="0"
       r="1"
       gradientUnits="userSpaceOnUse"
       gradientTransform="matrix(5.5843067,0,0,5.5843067,120.84958,45.259749)">
      <stop
         stop-color="#8065E0"
         id="stop126" />
      <stop
         offset="1"
         stop-color="#512BD4"
         id="stop128" />
    </radialGradient>
    <radialGradient
       id="paint7_radial"
       cx="0"
       cy="0"
       r="1"
       gradientUnits="userSpaceOnUse"
       gradientTransform="matrix(10.800541,0,0,10.800541,147.67789,37.42642)">
      <stop
         offset="0.1946"
         stop-color="#737373"
         id="stop131" />
      <stop
         offset="1"
         stop-color="#605D5A"
         id="stop133" />
    </radialGradient>
    <radialGradient
       id="paint8_radial"
       cx="0"
       cy="0"
       r="1"
       gradientUnits="userSpaceOnUse"
       gradientTransform="matrix(16.342642,0,0,16.342642,137.7856,38.33748)">
      <stop
         offset="0.1946"
         stop-color="#737373"
         id="stop136" />
      <stop
         offset="1"
         stop-color="#605D5A"
         id="stop138" />
    </radialGradient>
    <radialGradient
       id="paint9_radial"
       cx="0"
       cy="0"
       r="1"
       gradientUnits="userSpaceOnUse"
       gradientTransform="matrix(10.800541,0,0,10.800541,21.376161,37.42642)">
      <stop
         offset="0.1946"
         stop-color="#737373"
         id="stop141" />
      <stop
         offset="1"
         stop-color="#605D5A"
         id="stop143" />
    </radialGradient>
    <radialGradient
       id="paint10_radial"
       cx="0"
       cy="0"
       r="1"
       gradientUnits="userSpaceOnUse"
       gradientTransform="matrix(16.342642,0,0,16.342642,11.484109,38.33748)">
      <stop
         offset="0.1946"
         stop-color="#737373"
         id="stop146" />
      <stop
         offset="1"
         stop-color="#605D5A"
         id="stop148" />
    </radialGradient>
    <radialGradient
       id="paint11_radial"
       cx="0"
       cy="0"
       r="1"
       gradientUnits="userSpaceOnUse"
       gradientTransform="matrix(5.4414503,0,0,5.4414503,99.759803,44.51441)">
      <stop
         stop-color="#8065E0"
         id="stop151" />
      <stop
         offset="1"
         stop-color="#512BD4"
         id="stop153" />
    </radialGradient>
    <radialGradient
       id="paint12_radial"
       cx="0"
       cy="0"
       r="1"
       gradientUnits="userSpaceOnUse"
       gradientTransform="matrix(29.509578,0,0,29.509578,77.472503,39.65234)">
      <stop
         offset="0.4744"
         stop-color="#A08BE8"
         id="stop156" />
      <stop
         offset="0.8618"
         stop-color="#8065E0"
         id="stop158" />
    </radialGradient>
    <radialGradient
       id="paint13_radial"
       cx="0"
       cy="0"
       r="1"
       gradientUnits="userSpaceOnUse"
       gradientTransform="matrix(22.987583,0,0,22.987583,71.751577,34.852338)">
      <stop
         offset="0.0933"
         stop-color="#E1DFDD"
         id="stop161" />
      <stop
         offset="0.8998"
         stop-color="white"
         id="stop163" />
    </radialGradient>
    <radialGradient
       id="paint14_radial"
       cx="0"
       cy="0"
       r="1"
       gradientUnits="userSpaceOnUse"
       gradientTransform="matrix(4.260668,0,0,4.260668,72.993413,13.422552)">
      <stop
         stop-color="#8065E0"
         id="stop166" />
      <stop
         offset="1"
         stop-color="#512BD4"
         id="stop168" />
    </radialGradient>
    <linearGradient
       id="paint15_linear"
       x1="123.959"
       y1="110.912"
       x2="64.6633"
       y2="110.912"
       gradientUnits="userSpaceOnUse"
       gradientTransform="matrix(0.47634662,0,0,0.47634662,0.42534061,0.20212288)">
      <stop
         offset="0.2296"
         stop-color="#9780E6"
         id="stop171" />
      <stop
         offset="0.9374"
         stop-color="#8A6FE8"
         id="stop173" />
    </linearGradient>
    <radialGradient
       id="paint16_radial"
       cx="0"
       cy="0"
       r="1"
       gradientUnits="userSpaceOnUse"
       gradientTransform="matrix(5.4424506,0,0,5.4424506,55.622481,46.983981)">
      <stop
         stop-color="#8065E0"
         id="stop176" />
      <stop
         offset="1"
         stop-color="#512BD4"
         id="stop178" />
    </radialGradient>
    <radialGradient
       id="paint17_radial"
       cx="0"
       cy="0"
       r="1"
       gradientUnits="userSpaceOnUse"
       gradientTransform="matrix(5.5843067,0,0,5.5843067,33.633321,44.428524)">
      <stop
         stop-color="#8065E0"
         id="stop181" />
      <stop
         offset="1"
         stop-color="#512BD4"
         id="stop183" />
    </radialGradient>
  </defs>
</svg>
